<?xml version="1.0" encoding="utf-8"?>
<!-- Generator: Adobe Illustrator 24.1.2, SVG Export Plug-In . SVG Version: 6.00 Build 0)  -->
<svg version="1.1" id="Layer_1" xmlns="http://www.w3.org/2000/svg" xmlns:xlink="http://www.w3.org/1999/xlink" x="0px" y="0px"
	 viewBox="0 0 220 60" style="enable-background:new 0 0 220 60;" xml:space="preserve">
<style type="text/css">
	.st0{fill:#FFFFFF;}
	.st1{fill:none;stroke:#FFFFFF;stroke-width:2;stroke-miterlimit:10;}
	.st2{fill:#FFFFFF;stroke:#FFFFFF;stroke-width:2;stroke-miterlimit:10;}
	.st3{fill:none;stroke:#FFFFFF;stroke-miterlimit:10;}
	.st4{fill:#FFFFFF;stroke:#FFFFFF;stroke-width:0.5;stroke-miterlimit:10;}
	.st5{fill:#EDB92D;}
	.st6{fill:none;stroke:#EDB92D;stroke-miterlimit:10;}
</style>
<g>
	<path class="st0" d="M68.14,35.77c0,8.85-7.05,16.02-16.02,16.02c-8.91,0-16.02-7.17-16.02-16.02c0-8.85,7.11-16.02,16.02-16.02
		C61.09,19.75,68.14,26.92,68.14,35.77 M40.94,35.71c0,6.22,4.96,11.42,11.18,11.42c6.22,0,11.24-5.2,11.24-11.42
		c0-6.22-5.02-11.3-11.24-11.3C45.9,24.41,40.94,29.49,40.94,35.71"/>
	<path class="st1" d="M68.14,35.77c0,8.85-7.05,16.02-16.02,16.02c-8.91,0-16.02-7.17-16.02-16.02c0-8.85,7.11-16.02,16.02-16.02
		C61.09,19.75,68.14,26.92,68.14,35.77z M40.94,35.71c0,6.22,4.96,11.42,11.18,11.42c6.22,0,11.24-5.2,11.24-11.42
		c0-6.22-5.02-11.3-11.24-11.3C45.9,24.41,40.94,29.49,40.94,35.71z"/>
	<path class="st2" d="M107.53,35.71c0,8.55-6.28,15.9-14.7,15.9c-4.48,0-8.91-2.21-11.24-5.62l-0.18,4.66h-9.98v-3.83l5.38-0.42
		V12.46l-5.44-0.42V8.21h10.22v17.21c2.33-3.41,6.75-5.56,11.18-5.56C101.25,19.87,107.53,27.22,107.53,35.71 M102.69,35.71
		c0-6.04-4.72-11.18-10.76-11.18c-4.96,0-8.67,2.87-10.34,5.62v11.12c1.67,2.81,5.38,5.68,10.34,5.68
		C97.97,46.95,102.69,41.8,102.69,35.71"/>
	<path class="st3" d="M107.53,35.71c0,8.55-6.28,15.9-14.7,15.9c-4.48,0-8.91-2.21-11.24-5.62l-0.18,4.66h-9.98v-3.83l5.38-0.42
		V12.46l-5.44-0.42V8.21h10.22v17.21c2.33-3.41,6.75-5.56,11.18-5.56C101.25,19.87,107.53,27.22,107.53,35.71z M102.69,35.71
		c0-6.04-4.72-11.18-10.76-11.18c-4.96,0-8.67,2.87-10.34,5.62v11.12c1.67,2.81,5.38,5.68,10.34,5.68
		C97.97,46.95,102.69,41.8,102.69,35.71z"/>
	<path class="st2" d="M144.35,35.77c0,8.85-7.05,16.02-16.02,16.02c-8.91,0-16.02-7.17-16.02-16.02c0-8.85,7.11-16.02,16.02-16.02
		C137.29,19.75,144.35,26.92,144.35,35.77 M117.15,35.71c0,6.22,4.96,11.42,11.18,11.42c6.22,0,11.24-5.2,11.24-11.42
		c0-6.22-5.02-11.3-11.24-11.3C122.11,24.41,117.15,29.49,117.15,35.71"/>
	<path class="st1" d="M144.35,35.77c0,8.85-7.05,16.02-16.02,16.02c-8.91,0-16.02-7.17-16.02-16.02c0-8.85,7.11-16.02,16.02-16.02
		C137.29,19.75,144.35,26.92,144.35,35.77z M117.15,35.71c0,6.22,4.96,11.42,11.18,11.42c6.22,0,11.24-5.2,11.24-11.42
		c0-6.22-5.02-11.3-11.24-11.3C122.11,24.41,117.15,29.49,117.15,35.71z"/>
	<polygon class="st4" points="184.6,46.83 184.6,50.65 171.93,50.65 171.93,46.83 174.2,46.59 169.54,40.07 167.68,36.9 
		165.83,40.07 161.11,46.59 163.68,46.83 163.68,50.65 150.59,50.65 150.59,46.83 155.67,46.41 164.16,35.29 156.33,25.01 
		151.19,24.59 151.19,20.76 164.04,20.76 164.04,24.59 161.65,24.83 165.65,30.57 167.5,33.68 169.42,30.57 173.54,24.83 
		171.15,24.59 171.15,20.76 183.94,20.76 183.94,24.59 178.92,25.01 171.09,35.17 179.64,46.41 	"/>
	<polygon class="st1" points="184.6,46.83 184.6,50.65 171.93,50.65 171.93,46.83 174.2,46.59 169.54,40.07 167.68,36.9 
		165.83,40.07 161.11,46.59 163.68,46.83 163.68,50.65 150.59,50.65 150.59,46.83 155.67,46.41 164.16,35.29 156.33,25.01 
		151.19,24.59 151.19,20.76 164.04,20.76 164.04,24.59 161.65,24.83 165.65,30.57 167.5,33.68 169.42,30.57 173.54,24.83 
		171.15,24.59 171.15,20.76 183.94,20.76 183.94,24.59 178.92,25.01 171.09,35.17 179.64,46.41 	"/>
	<path class="st5" d="M124.82,32.28c1.83-1.82,4.78-1.82,6.61,0c1.83,1.83,1.83,4.78,0,6.61c-1.83,1.82-4.78,1.82-6.61,0
		C122.99,37.06,122.99,34.1,124.82,32.28"/>
	<circle class="st6" cx="128.12" cy="35.58" r="4.67"/>
	<path class="st5" d="M111.74,19.88c0.99-1.22,2.13-2.27,3.32-3.25c1.19-0.98,2.45-1.86,3.78-2.66c1.33-0.8,2.73-1.5,4.25-2.07
		c1.52-0.55,3.12-1.02,5.04-1.05c1.92,0.03,3.51,0.5,5.04,1.05c1.52,0.56,2.92,1.26,4.25,2.06c1.33,0.8,2.6,1.68,3.78,2.66
		c1.18,0.99,2.32,2.03,3.31,3.26c-3.04-0.74-5.84-1.73-8.61-2.59c-1.38-0.44-2.74-0.87-4.07-1.19c-0.66-0.18-1.31-0.31-1.94-0.42
		l-0.92-0.14c-0.28-0.01-0.57-0.02-0.85-0.04c-0.28,0.02-0.56,0.03-0.85,0.04l-0.92,0.14c-0.63,0.11-1.28,0.24-1.94,0.42
		c-1.33,0.33-2.69,0.75-4.07,1.19C117.57,18.14,114.77,19.13,111.74,19.88"/>
</g>
</svg>
