<?xml version="1.0" encoding="utf-8"?>
<!-- Generator: Adobe Illustrator 24.2.1, SVG Export Plug-In . SVG Version: 6.00 Build 0)  -->
<svg version="1.1" xmlns="http://www.w3.org/2000/svg" xmlns:xlink="http://www.w3.org/1999/xlink" x="0px" y="0px"
	 viewBox="0 0 500 500" style="enable-background:new 0 0 500 500;" xml:space="preserve">
<style type="text/css">
	.st0{fill:url(#SVGID_1_);}
	.st1{fill:url(#SVGID_2_);}
	.st2{fill:url(#SVGID_3_);}
	.st3{fill:url(#SVGID_4_);}
	.st4{fill:#FFFFFF;}
	.st5{fill:none;stroke:#242424;stroke-width:2;stroke-miterlimit:10;}
	.st6{fill:none;stroke:#50514F;stroke-width:2;stroke-miterlimit:10;}
	.st7{fill:none;stroke:#282926;stroke-width:2;stroke-miterlimit:10;}
	.st8{fill:none;stroke:#282926;stroke-miterlimit:10;}
	.st9{fill:none;stroke:#272826;stroke-miterlimit:10;}
	.st10{fill:#242424;}
	.st11{fill:#E8BD35;}
	.st12{fill:url(#SVGID_5_);}
	.st13{fill:#1C1F21;}
	.st14{fill:#FCFEFD;}
	.st15{fill:#F7E9D4;}
	.st16{fill:#010100;}
	.st17{fill:#F6E7CE;}
	.st18{fill:#F5E5CC;}
	.st19{fill:#EFDDBD;}
	.st20{fill:#F5E5CB;}
	.st21{fill:#F0DDBE;}
	.st22{fill:#E1C892;}
	.st23{fill:#A6823C;}
	.st24{fill:#E3CD9C;}
	.st25{fill:#DEC58C;}
	.st26{fill:#D0B26A;}
	.st27{fill:#CFAF63;}
	.st28{fill:#E2CA97;}
	.st29{fill:#F6E6D0;}
	.st30{fill:#E8D2A5;}
	.st31{fill:#F7E8D1;}
	.st32{fill:#CCAD5E;}
	.st33{fill:#E2CB9A;}
	.st34{fill:#EFDDBC;}
	.st35{fill:#E6D0A1;}
	.st36{fill:#E2CA96;}
	.st37{fill:#F4E3CA;}
	.st38{fill:#CBAA5A;}
	.st39{fill:#DAC082;}
	.st40{fill:#EEDCBA;}
	.st41{fill:#EAD5AB;}
	.st42{fill:#EBD7B2;}
	.st43{fill:#C9A959;}
	.st44{fill:#C3A253;}
	.st45{fill:#C09C4F;}
	.st46{fill:#AC8740;}
	.st47{fill:#B8944A;}
	.st48{fill:#F1E0C2;}
	.st49{fill:#F6E6CD;}
	.st50{fill:#F5E6CD;}
	.st51{fill:#DFC68E;}
	.st52{fill:#EAD4AA;}
	.st53{fill:#E0C792;}
	.st54{fill:#E3CD9B;}
	.st55{fill:#F3E2C7;}
	.st56{fill:#E8D3A7;}
	.st57{fill:#C7A655;}
	.st58{fill:#E9D6B0;}
	.st59{fill:#E4CE9F;}
	.st60{fill:#B49046;}
	.st61{fill:#DEC48B;}
	.st62{fill:#ECD8B1;}
	.st63{fill:#F3E3C9;}
	.st64{fill:#ECD8B2;}
	.st65{fill:#E0C894;}
	.st66{fill:#F3E2C6;}
	.st67{fill:#EBD8B3;}
	.st68{fill:#D8BD7C;}
	.st69{fill:#B08B44;}
	.st70{fill:#F0DFC1;}
	.st71{fill:#EDDBB7;}
	.st72{fill:#AA853F;}
	.st73{fill:#EEDCB9;}
	.st74{fill:#EAD5AD;}
	.st75{fill:#E9D4AA;}
	.st76{fill:#D3B774;}
	.st77{fill:#F1E0C4;}
	.st78{fill:#CFB065;}
	.st79{fill:#E5CFA0;}
	.st80{fill:#CCAB5A;}
	.st81{fill:#77512D;}
	.st82{fill:#E8D1A5;}
	.st83{fill:#EEDBB7;}
	.st84{fill:#DDC48A;}
	.st85{fill:#F2E1C5;}
	.st86{fill:#CAA959;}
	.st87{fill:#BA974B;}
	.st88{fill:#EAD8B5;}
	.st89{fill:#C7A656;}
	.st90{fill:#CFB168;}
	.st91{fill:#7F582C;}
	.st92{fill:#DBC289;}
	.st93{fill:#A47F3B;}
	.st94{fill:#B59147;}
	.st95{fill:#DCC286;}
	.st96{fill:#CDAD5F;}
	.st97{fill:#BD9A4D;}
	.st98{fill:#DAC18A;}
	.st99{fill:#D6BA77;}
	.st100{fill:#D5B97A;}
	.st101{fill:#F2E2C8;}
	.st102{fill:#B8954B;}
	.st103{fill:#9C7634;}
	.st104{fill:#B59148;}
	.st105{fill:#E7D0A3;}
	.st106{fill:#D1B36C;}
	.st107{fill:#CEAE60;}
	.st108{fill:#AC8741;}
	.st109{fill:#E9D3A7;}
	.st110{fill:#E8D3AB;}
	.st111{fill:#F1DEBE;}
	.st112{fill:#D1B46E;}
	.st113{fill:#C19E50;}
	.st114{fill:#BE9C4F;}
	.st115{fill:#D4B774;}
	.st116{fill:#A17B38;}
	.st117{fill:#D0B065;}
	.st118{fill:#A7823D;}
	.st119{fill:#E6D0A4;}
	.st120{fill:#D5B97C;}
	.st121{fill:#A37E3B;}
	.st122{fill:#D3B776;}
	.st123{fill:#D4B772;}
	.st124{fill:#CEB16E;}
	.st125{fill:#F3E0C1;}
	.st126{fill:#DFC795;}
	.st127{fill:#DFC794;}
	.st128{fill:#724C2A;}
	.st129{fill:#D3B87B;}
	.st130{fill:#F7E5C7;}
	.st131{fill:#714924;}
	.st132{fill:#896630;}
	.st133{fill:#C8AE74;}
	.st134{fill:#C5B18C;}
	.st135{fill:#8E723B;}
	.st136{fill:#020201;}
	.st137{fill:#020202;}
	.st138{fill:#0C0B0A;}
	.st139{fill:#E3CC9B;}
	.st140{fill:#E9D4AB;}
	.st141{fill:#E8D3A9;}
	.st142{fill:#E6CFA2;}
	.st143{fill:#DEC99E;}
	.st144{fill:#010101;}
	.st145{fill:#704B31;}
	.st146{fill:#DDC48C;}
	.st147{fill:#75502F;}
	.st148{fill:#7A542E;}
	.st149{fill:#BE9B4F;}
	.st150{fill:#D3B671;}
	.st151{fill:#AE8C4F;}
	.st152{fill:#875F25;}
	.st153{fill:#CDAF65;}
	.st154{fill:#DEC48C;}
	.st155{fill:#DFC998;}
	.st156{fill:#E7D2A7;}
	.st157{fill:#DDC89B;}
	.st158{fill:#C4A353;}
	.st159{fill:#D4B770;}
	.st160{fill:#875F29;}
	.st161{fill:#BC984C;}
	.st162{fill:#6A4532;}
	.st163{fill:#B08C44;}
	.st164{fill:#704B30;}
	.st165{fill:#664235;}
	.st166{fill:#865E26;}
	.st167{fill:#78522D;}
	.st168{fill:#825A28;}
	.st169{fill:#7C5529;}
	.st170{fill:#835B28;}
	.st171{fill:#7A532C;}
	.st172{fill:#8A6433;}
	.st173{fill:#744D27;}
	.st174{fill:#815A27;}
	.st175{fill:#E0C791;}
	.st176{fill:#7F582B;}
	.st177{fill:#DBC189;}
	.st178{fill:#7E572A;}
	.st179{fill:#8F6A3A;}
	.st180{fill:#6D4832;}
	.st181{fill:#6F4A2C;}
	.st182{fill:#C3A252;}
	.st183{fill:#D0B77C;}
	.st184{fill:#6B4733;}
	.st185{fill:#AD8B51;}
	.st186{fill:#825A29;}
	.st187{fill:#7B552C;}
	.st188{fill:#79532F;}
	.st189{fill:#7B501B;}
	.st190{fill:#764F2D;}
	.st191{fill:#7D562A;}
	.st192{fill:#DBC188;}
	.st193{fill:#D8BE83;}
	.st194{fill:#D4BB81;}
	.st195{fill:#D6BA7B;}
	.st196{fill:#D8BD80;}
	.st197{fill:#D2B779;}
	.st198{fill:#D3B778;}
	.st199{fill:#D8BB7A;}
	.st200{fill:#DBC186;}
	.st201{fill:#D9BE80;}
	.st202{fill:#D9BF84;}
	.st203{fill:#E7D1AA;}
	.st204{fill:#E3CEA5;}
	.st205{fill:#D4B777;}
	.st206{fill:#6F4A31;}
	.st207{fill:#744F30;}
	.st208{fill:#7F551A;}
	.st209{fill:#AC8B53;}
</style>
<g id="Layer_5">
</g>
<g id="all">
	<g id="Layer_3">
		<linearGradient id="SVGID_1_" gradientUnits="userSpaceOnUse" x1="243.2527" y1="222.5122" x2="241.2034" y2="91.0282">
			<stop  offset="0" style="stop-color:#CCE0F4"/>
			<stop  offset="0.0641" style="stop-color:#C3DCF2"/>
			<stop  offset="0.1706" style="stop-color:#A9D2EE"/>
			<stop  offset="0.3066" style="stop-color:#80C2E7"/>
			<stop  offset="0.4649" style="stop-color:#47ACDE"/>
			<stop  offset="0.5674" style="stop-color:#1E9CD7"/>
			<stop  offset="0.8652" style="stop-color:#0075BE"/>
			<stop  offset="0.9944" style="stop-color:#005B97"/>
		</linearGradient>
		<path class="st0" d="M253.72,223.39l-120,7l-57-9c0,0,22-70,69-95s99.5-27.5,99.5-27.5l54,7l45,18l35,23l19,23l11,17l-5,29
			L253.72,223.39z"/>
		<linearGradient id="SVGID_2_" gradientUnits="userSpaceOnUse" x1="162.7401" y1="341.8918" x2="162.7401" y2="200.9835">
			<stop  offset="0.3464" style="stop-color:#89B164"/>
			<stop  offset="0.6842" style="stop-color:#88B062"/>
			<stop  offset="0.8058" style="stop-color:#83AD5B"/>
			<stop  offset="0.8926" style="stop-color:#7AA750"/>
			<stop  offset="0.9622" style="stop-color:#6E9F3F"/>
			<stop  offset="0.9972" style="stop-color:#669933"/>
		</linearGradient>
		<path class="st1" d="M86.22,203.89c0,0,49.36-9.14,154.66,4.98l8.34,76.9l-58,48.12l-61,8h-19
			C111.22,341.89,53.72,270.39,86.22,203.89z"/>
		<linearGradient id="SVGID_3_" gradientUnits="userSpaceOnUse" x1="291.178" y1="173.2712" x2="376.6703" y2="196.2546">
			<stop  offset="0" style="stop-color:#F5E80D"/>
			<stop  offset="0.4317" style="stop-color:#FABC16"/>
			<stop  offset="0.7951" style="stop-color:#FE9E1C"/>
			<stop  offset="1" style="stop-color:#FF931E"/>
		</linearGradient>
		<path class="st2" d="M379.02,187.68c0,0-11.31-32.29-47.81-30.79c-35.1,1.44-43.5,32.5-43.5,32.5l2.48,13.36l46.02,6.14
			L379.02,187.68z"/>
		<linearGradient id="SVGID_4_" gradientUnits="userSpaceOnUse" x1="309.8954" y1="333.8918" x2="309.8954" y2="186.3918">
			<stop  offset="0.0838" style="stop-color:#559755"/>
			<stop  offset="0.2824" style="stop-color:#509150"/>
			<stop  offset="0.5531" style="stop-color:#427F43"/>
			<stop  offset="0.8642" style="stop-color:#2B632D"/>
			<stop  offset="1" style="stop-color:#1F5422"/>
		</linearGradient>
		<path class="st3" d="M196.57,259.1c0,0,19.64-70.2,150.64-70.2c14,0,54.5-2.5,54.5-2.5l13.5,15.5l8,42l-4,37l-13,35l-13,17l-7,1
			l-44-1L196.57,259.1"/>
		<path class="st4" d="M235.22,144.89c0,0,2-4,8-3c0,0,3-3,6-3c0,0,5-1,8,1c3,2,5,2,8,2s5,0,6,1s15,0,15,0s5,3,4,4s-4,2-5,1
			s-4-3-5-2s-3,2-4,2s-11,1-13,0s-4-1-5-1s-11,0-11,0s0-2-1-2S235.22,144.89,235.22,144.89z"/>
		<path class="st4" d="M204.72,158.39c0,0-6-1-10,1s-10,4-12,4s-7,0-9,0s-5,0-5,2s2,3,4,3s7-2,9-2s2.5,1.5,5.5,0.5s6-1,7-1s4,1,5,1
			s7,1,8,0s3-2,7-2s9,2,9,2s6,0,7,0s6.1,0.5,6.1,0.5s0.9-2.5-1.1-2.5s-6-2-8-2s-5,2-6,0s-2-4-4-4s-7-1-8-1
			S204.72,158.39,204.72,158.39z"/>
	</g>
	<g id="Layer_8">
		<polyline class="st5" points="121.72,271.39 134.06,189.39 135.72,178.39 136.72,178.39 137.72,178.39 139.44,189.39 
			152.22,270.89 		"/>
		<line class="st6" x1="136.72" y1="268.39" x2="136.72" y2="189.39"/>
		<line class="st7" x1="124.76" y1="251.14" x2="149.12" y2="251.14"/>
		<line class="st7" x1="128.72" y1="223.39" x2="144.77" y2="223.39"/>
		<line class="st8" x1="130.83" y1="210.86" x2="142.81" y2="210.86"/>
		<line class="st9" x1="145.01" y1="224.89" x2="125.23" y2="251.14"/>
		<line class="st9" x1="129.23" y1="224.89" x2="149.01" y2="251.14"/>
		<polygon class="st10" points="138.72,189.39 134.72,189.39 135.72,178.39 137.72,178.39 		"/>
		<circle class="st10" cx="136.72" cy="173.39" r="2"/>
		<polygon class="st10" points="136.72,173.39 163.72,170.39 163.72,178.39 136.72,174.39 		"/>
		<polygon class="st10" points="140.19,171.04 150.36,162.17 153.49,167.29 140.58,171.68 		"/>
		<polygon class="st10" points="138.8,169.2 144.65,157.04 149.55,160.51 139.41,169.63 		"/>
		<polygon class="st10" points="136.47,168.85 134.28,155.54 140.28,155.57 137.22,168.86 		"/>
		<polygon class="st10" points="133.59,171.04 123.42,162.17 120.28,167.29 133.19,171.68 		"/>
		<polygon class="st10" points="134.98,169.2 129.13,157.04 124.23,160.51 134.37,169.63 		"/>
		<polygon class="st10" points="133.59,174.18 123.42,183.05 120.28,177.93 133.19,173.54 		"/>
		<polygon class="st10" points="132.17,172.69 119.73,174.84 119.71,169.23 132.17,171.99 		"/>
		<polygon class="st10" points="134.98,176.02 129.13,188.18 124.23,184.71 134.37,175.59 		"/>
		<polygon class="st10" points="140.19,174.18 150.36,183.05 153.49,177.93 140.58,173.54 		"/>
		<polygon class="st10" points="138.8,176.02 144.65,188.18 149.55,184.71 139.41,175.59 		"/>
	</g>
	<g id="Layer_6">
		<path class="st11" d="M248.72,85.39c-87.26,0-178,75.74-178,163s90.74,158,178,158s179-70.74,179-158S335.98,85.39,248.72,85.39z
			 M248.75,397.39c-81.28,0-168.53-68.22-168.53-149.5s87.72-143,169-143s168,62.72,168,144S330.03,397.39,248.75,397.39z"/>
		<polyline class="st11" points="173.34,375.41 226.72,384.39 238.72,398.39 232.72,403.39 186.72,389.39 166.66,380.31 
			173.72,375.39 		"/>
	</g>
	<g id="Layer_7">
		<linearGradient id="SVGID_5_" gradientUnits="userSpaceOnUse" x1="249.0425" y1="113.8918" x2="249.0425" y2="71.3918">
			<stop  offset="0.4581" style="stop-color:#882729"/>
			<stop  offset="0.6054" style="stop-color:#822626"/>
			<stop  offset="0.7947" style="stop-color:#72221F"/>
			<stop  offset="1" style="stop-color:#591D13"/>
		</linearGradient>
		<path class="st12" d="M330.72,85.39c-18.8-12.22-74.71-13.84-81.35-13.99l0-0.01c0,0-0.12,0-0.33,0.01
			c-0.21,0-0.33-0.01-0.33-0.01l0,0.01c-6.64,0.15-62.55,1.77-81.35,13.99c-10.5,16.5-8.5,28.5-8.5,28.5s40-20,90-20h0.35
			c50,0,90,20,90,20S341.22,101.89,330.72,85.39z"/>
	</g>
	<g id="Layer_11">
		<polygon points="348.72,339.39 343.72,329.39 314.72,344.39 303.72,349.39 284.72,342.39 264.91,339.32 255.72,339.39 
			255.72,346.39 305.72,374.39 336.72,373.39 		"/>
	</g>
	<g id="Layer_4">
		<polygon class="st4" points="162.72,322.39 162.72,314.39 166.72,305.39 171.72,296.39 174.72,290.39 179.72,282.39 
			183.72,274.39 188.72,268.39 192.72,263.39 196.72,259.39 202.72,256.39 209.72,254.39 209.72,270.39 206.72,292.39 
			199.72,312.39 196.72,323.39 		"/>
		<polygon class="st4" points="214.72,225.39 217.72,224.39 217.72,217.39 210.72,215.39 205.72,218.39 202.72,223.39 
			201.72,227.39 206.72,226.39 211.72,225.39 		"/>
		<polygon class="st4" points="217.72,197.39 225.72,224.39 235.72,261.39 217.72,296.39 209.72,323.39 215.72,325.39 
			219.35,329.64 221.79,332.85 224.33,334.97 228.41,337.14 234.76,338.87 240.72,339.39 250.91,339.64 260.72,339.39 
			267.83,339.33 280.39,338.67 290.09,337.21 294.44,336.23 296.72,335.57 299.37,334.64 302.06,333.46 304.69,331.94 
			306.55,330.52 308.11,328.91 309.14,327.47 309.57,326.69 309.72,324.39 310.72,309.39 292.72,275.39 287.72,244.39 
			283.72,217.39 290.72,201.39 288.72,186.39 285.72,182.39 284.72,180.39 283.12,177.63 281.06,175.32 278.75,173.14 
			275.06,170.39 270.71,168.27 266.48,167.41 250.68,167.41 240.6,167.39 233.92,167.39 232.3,167.96 229.59,169.22 226.62,170.95 
			225.04,172.09 223.74,173.25 221.72,176.39 219.72,178.39 217.72,193.39 		"/>
		<path class="st4" d="M293.72,247.39h6l6,4l11,7l7,13l2,3l4,4l6,10l5,8l4,8l2,6v5v4v3l1,1l1,2l1,4l2,3l1,1l-1,1c0,0-12-2-15,0
			s-7.26,5.29-7.63,6.64c-0.37,1.36-1.37,0.36-1.37,5.36s-6,8-6,8l-6,5l-33-12l-19-6l-1-1l25.3-2.81l7.18-1.56l4.69-1.58l2.87-1.34
			l4.31-3.06l2.13-2.67l0.52-1.99l5-8l6-6l-5-13l-13-23l-9-16V247.39z"/>
		<path class="st4" d="M298.72,221.39c0,0,2.19-1.63,8.85-0.36c4.04,0.77,1.15-4.64,1.15-4.64l-6-3h-7l-3,6l-2,4h5L298.72,221.39z"
			/>
	</g>
	<g id="Layer_2">
		<path class="st13" d="M263.22,316.89c-6,0-20-5-24-5s-6,1-5,4s12,8,13,10c3,4,0,8-2,7s-9-6-11-5s-3,4-1,6s8,6,8,6l43.5-1.5
			l7.5-7.5c0,0,1-2-1-4s-5,0-5,0l-8,6c0,0-1,1-3-1s1-4,1-4l13-9c0,0,2-3,0-6s-8,0-8,0S273.22,316.89,263.22,316.89z"/>
		<path class="st13" d="M307.22,329.39c0,0-3.5,4.9-8.5,5.98c0,0,5.5,13.6,6.5,12.51c1-1.09,2,0,2-3.26S307.22,329.39,307.22,329.39
			z"/>
		<path class="st13" d="M212.49,247.84c0.22,0.55-6.28,4.05-14.28,10.05s-12,7-16,17s-15,25-15,25c-3,7-7,15-6,23h3c0,0-1-10,5-20
			s11-21,13-21s1,2,3,1s4-10,4-10s4-11,7-12s6.07-3.42,6.07-3.42S214.66,250.6,212.49,247.84z"/>
		<path d="M222.22,305.89c0,0,22-19,21-35s-9-38-9-41s-1-12-1-12l-12-15c0,0-3-6,0-25l2.5-4.5c0,0-5.5,5.5-6.5,9.5s-8,18-15,18
			s-20-5-24-5s-29,2-33,15c3,10,23,21,32,22s27,1,32-7c-3,0-6-1-6-1s3,1,4-1s1-6,3-5s7,4,7,4s0,3-1,2s-3-4-4-3s-3,3-3,4s0,11,0,11
			s0,1,2,3s2,7,2,7s-4,6-12,9c0,1,1,2,3,2s0,4,0,4l-2,4v21c0,0-2,1-2,2s0,8,0,8s-3,2-4,5s-3,3-3,8s-10,13-10,13s18,0,35,4v-13
			C218.22,313.89,218.22,309.89,222.22,305.89z"/>
		<path d="M283.22,177.89c0,0,1.9,4.06,3,14c1,9-1,12-5,14c0,0-3,1-3,16s2,15,2,19s-4,21,2,41c7,16,19,20,21,25c4,5,6,7,6,20
			c6-8,11-10,13-10s1-5,2-7s5-4,1-8s-10-8-12-24s-7-22-16-25c0-11,0-20,3-24c2-4-1-8-1-8s-3-2-6,1c-1-5,5-7,5-7c4,2,8,4,10,7
			s11,8,18,7s42-15,41-21s-23-15-24-16s-11-2-13-1s-10,7-18,6S299.22,199.89,283.22,177.89z"/>
		<path d="M296.72,248.39c0,0,18.5,4.5,24.5,24.5c0,4,3,4,5,4s3,3,3,3l14,28c0,0,2,1,2,8s3,8,3,10s1,8,3,8s4,0,4,0s0,0-2-3
			s-6-7-6-10s0-17,0-17c-1-4-9-16-9-16s-9-11-10-14s-3-13-11-18s-19.94-11.62-19.94-11.62L296.72,248.39z"/>
		<path class="st13" d="M195.22,276.89c0,0,0,2-2,4s-6,10-6,14s2,9,1,12s-2,9-2,9s4-5,4-7s-1-9-1-9s0-3,2-5s5-5,5-9
			S195.22,276.89,195.22,276.89z"/>
		<path class="st13" d="M334.22,295.89c0,0,6,9,5,16s0,22,0,22s-4,1-6,3s-4,5-4,5s-2-12,0-18s7-11,7-11S336.22,298.89,334.22,295.89
			z"/>
		<path class="st13" d="M320.22,326.89c0,0-5,0-4,4s2,6,1,8s-2,3,1,3s4-2,3-5s-3-6-2-7S321.22,327.89,320.22,326.89z"/>
		<path class="st13" d="M287.21,349.04c0,0,2.51-2.73,7.99-1.12c4.32,1.27,5.04,6.43,5.04,6.43L287.21,349.04z"/>
		<g>
			<path d="M283.7,178.4c-2.89-3.41-6.35-6.37-10.26-8.38c-1.96-0.98-4.06-1.67-6.19-1.87l-1.6-0.07l-1.68,0.03l-3.36,0.06
				c-4.48,0.07-8.96,0.17-13.45,0.16c-2.24,0.02-4.48-0.01-6.72-0.05c-2.24-0.03-4.48-0.11-6.72-0.22l0.22-0.04l0,0
				c-2.01,0.64-4.02,1.46-5.92,2.45c-1.89,1-3.73,2.17-5.17,3.81c1.26-1.78,3.02-3.17,4.83-4.38c0.91-0.61,1.86-1.16,2.83-1.68
				c0.97-0.52,1.95-1,2.98-1.45l0,0l0.08-0.03l0.15-0.01c2.24-0.11,4.48-0.19,6.72-0.22c2.24-0.05,4.48-0.08,6.72-0.05
				c4.48-0.02,8.96,0.08,13.45,0.16l3.36,0.06l1.68,0.03l1.75,0.14c2.32,0.34,4.51,1.2,6.49,2.33c1.99,1.14,3.8,2.53,5.42,4.1
				c1.63,1.56,3.13,3.26,4.41,5.11L283.7,178.4z"/>
		</g>
		<path class="st4" d="M298.72,264.17c0,0,1.33,13.78,0.44,18.22c-0.68,3.39,0.44,12.89,0.44,12.89s0.89,5.33,3.56,5.33
			s3.56-3.56,3.56-5.33s-0.89-8.89-1.78-9.78s-3.56-9.78-2.67-12.44c0.89-2.67,0.89-6.22,0-7.11S298.72,264.17,298.72,264.17z"/>
		<path class="st14" d="M217.41,263.44c0,0-3.37,10.94-2.52,13.46c0.84,2.52,2.52,6.73,3.37,7.57c0.84,0.84-2.09,11.27-1.47,13.21
			c0.63,1.94,1.47,2.78,3.15,3.62c1.68,0.84,1.68-4.21,1.68-6.73c0-2.52-0.84-24.82,0.42-29.87
			C222.68,262.12,219.09,263.44,217.41,263.44z"/>
		<circle class="st4" cx="215.22" cy="229.89" r="1"/>
		<g>
			<path class="st4" d="M216.22,229.89c0.23,0.68,0.23,1.42-0.07,2.12c-0.16,0.34-0.38,0.7-0.76,0.91c-0.37,0.2-0.84,0.2-1.17-0.03
				c0.33-0.26,0.53-0.43,0.71-0.61c0.17-0.18,0.35-0.38,0.49-0.63C215.71,231.15,215.94,230.54,216.22,229.89z"/>
		</g>
		<circle class="st4" cx="296.79" cy="226.52" r="0.9"/>
		<g>
			<path class="st4" d="M296.05,226.02c0.17,0.93,0.38,1.78,0.85,2.39c0.24,0.3,0.53,0.56,0.9,0.74c0.36,0.2,0.78,0.34,1.23,0.52v0
				c-0.45,0.14-0.96,0.2-1.45,0.06c-0.49-0.11-0.97-0.43-1.27-0.86C295.7,227.98,295.68,226.88,296.05,226.02z"/>
		</g>
		<polygon points="214.72,319.39 202.72,331.39 226.72,339.39 224.02,334.74 220.16,330.91 218.74,328.41 218.22,326.89 
			217.22,324.89 		"/>
		<polygon points="214.72,334.39 190.39,332.08 179.55,327.97 189.72,320.39 212.72,319.39 216.72,325.39 		"/>
	</g>
	<g id="bandana">
		<g>
			<path class="st15" d="M252.72,403.3c-1.68-0.28-3.6,0.65-5-0.99c-0.58-4.64,0.11-8.91,3.6-12.36
				c-1.78-12.46-0.88-24.99-0.91-37.48c-0.01-4.34-1.45-6.85-5.66-7.9c-1.75-0.44-3.4-1.27-4.9-2.35c-0.88-0.78-1.55-1.64-1.12-2.92
				c14.43-1.27,27.84,2.7,40.99,8.02c0.82,4.03-2.22,6.68-3.67,9.86c-0.76,1.66-2.34,1.72-3.25-0.25c-0.49-1.07-0.98-2.08-2.29-2.31
				c-1.81,0.14-4.2-2.84-5.32,0.52c-0.98,2.95,1.19,4.36,3.8,5.15c1.53,0.47,3.19,0.77,4.22,2.24c0.68,2-0.01,3.42-1.82,4.37
				c-2.59,0.81-4.8-0.8-7.55-1.24c0.94,3.36,1.7,6.66,0.45,9.98c-3.37,7.76-5.94,15.82-8.93,23.71
				C254.78,400.86,254.61,402.66,252.72,403.3z"/>
			<path class="st16" d="M326.46,411.09l-0.4-0.01l-0.33,0.22c-2.21,1.51-4.7,1.46-7.21,1.29c-3-0.26-5.27-2.15-7.8-3.47
				c-1.46-1.03-2.79-2.22-4.14-3.39c-2.23-2.24-2.03-5.36-2.93-8.08c-0.37-5.87-1.45-11.86,2.88-16.93
				c2.56-1.65,5.21-3.12,8.27-3.62c2.14-0.19,4.28-0.19,6.41,0.07c2.51,0.56,5.04,1.08,7.38,2.22c1.82,0.96,3.53,2.08,4.91,3.64
				c1.76,2.35,3.08,4.89,3.43,7.86c0.1,3.21,0.21,6.42-0.07,9.63c-0.7,3.11-2.14,5.82-4.37,8.11
				C330.82,410.25,328.76,410.97,326.46,411.09z"/>
			<path class="st17" d="M238.73,339.3c0.33,0.63,0.66,1.26,1,1.89c3.82,4.23,4.71,9.26,4.47,14.79
				c-0.25,5.81-0.17,11.64-0.02,17.46c0.11,4.53-0.28,8.95-1.74,13.25c-0.46,4.3-0.29,8.74-2.7,12.63c-2.53,0-4.95-0.34-7.01-2
				c-2.56-3.53-1.45-7.75-2.01-11.62c-0.87-6.07-0.91-12.25-1.4-18.38c-0.21-2.54-0.48-5.49,2.7-6.86c0.5-0.14,1.03-0.2,1.56-0.19
				c3.54-0.79,3.79-1.67,1.62-6c-1.5-1-3.2-1.82-3.6-3.85c-0.21-4.07-1.32-8.23,1.15-12.05
				C234.74,338.62,236.96,337.53,238.73,339.3z"/>
			<path class="st18" d="M284.71,349.37c2.76,0.41,4.22,2.26,5.2,4.65c4.1,3.56,4.13,7.4,0.1,11.08c-3.22,1.04-7.49,6.83-7.03,9.57
				c2.94,7.74,0,14.51-3.58,21.1c-1.11,2.05-3.06,2.32-5.13,1.21c-1.07-0.68-1.54-1.72-1.77-2.91c-0.15-4.05-0.45-8.1,0.23-12.14
				c3.36-7.84,5.66-16.04,8.04-24.21C281.62,354.76,282.34,351.66,284.71,349.37z"/>
			<path class="st19" d="M205.72,325.42c0.35,0,0.69-0.01,1.04-0.01c3.29,2.09,3.28,5.48,3.35,8.77c0.09,3.95-0.19,7.93,1.87,11.54
				c6.3,9.69,5.76,19.72,1.38,29.89c-0.35,0.81-0.41,1.56-0.37,2.37c0.19,2.46,0.38,4.94,0.04,7.38c-0.26,1.95-0.51,4.08-3.33,3.95
				c-0.81-0.05-1.57-0.19-2-1c0.22-5.29-0.24-10.49-1.87-15.56c0.45-7.42-0.2-14.79-1.05-22.15c-0.36-3.11-0.24-6.25,0.23-9.37
				c0.52-3.45,0.57-6.88-0.67-10.25C203.58,328.9,203.19,326.76,205.72,325.42z"/>
			<path class="st20" d="M233.85,361.27c-2.85-0.19-3.31,1.55-3.12,3.83c0.61,7.41,1.29,14.82,1.8,22.24
				c0.23,3.32,0.14,6.65,0.19,9.98c-1.98-0.74-4.26-0.54-6-2c-3.16-4.75-2.79-10.06-2.43-15.37c-3.11-6.31-3.55-12.97-2.37-19.77
				c0.45-2.61,1.1-5.44,4.09-6.25c3.2-0.87,4.64,1.78,6.21,3.88C232.99,358.84,234.04,359.77,233.85,361.27z"/>
			<path class="st21" d="M307.69,381.13c-3.07,3.37-3.22,7.54-3.2,11.75c0.01,1.79,0.14,3.58,0.22,5.37
				c0.92,2.59-0.52,3.83-2.67,4.66c-3.19-0.5-7.32,1.27-8.77-3.55c1.06-4.37,3.07-8.39,4.61-12.59c0.9-2.44,1.3-4.74,0.55-7.22
				c0.63-1.26,2.05-1.88,2.62-3.2c3.01-4.89,2.84-10.98,5.96-15.82c0.93-1.44,1.17-3.67,3.73-3.24c0.65,0.37,1.29,0.74,1.94,1.11
				c1.23,2.2,0.86,4.49,0.38,6.78C311.87,370.7,309.54,375.83,307.69,381.13z"/>
			<path class="st22" d="M404.58,332.24c2.12-1.7,4.64-0.56,6.95-0.96c3.27-1.32,4.18,0.67,4.43,3.29
				c0.34,3.61,0.48,7.25,0.64,10.87c0.53,11.49,2.84,22.84,2.73,34.37c-0.01,1.42-0.21,2.63-1.65,3.27
				c-1.7,0.26-3.16,1.61-5.03,1.13c-0.07-7.41-2.12-14.65-1.89-22.1c0.08-2.55-1.1-4.73-2.69-6.69c-0.09-0.46-0.1-0.93-0.06-1.4
				c0.43-3.39,1.09-6.8-1.22-9.85c-0.4-0.59-0.67-1.22-0.67-1.95c3.2-6.06,3.14-6.57-1.14-9.42
				C404.85,332.62,404.72,332.43,404.58,332.24z"/>
			<path class="st23" d="M108.98,354.55c1.97-3.53,0.86-7.14-0.3-10.43c-1.62-4.56-0.13-7.83,3.01-10.84
				c3.14-0.09,3.48,2.32,3.34,4.38c-0.65,10.1,1.72,20.06,1.29,30.15c-0.17,3.97,1.32,7.84,1.11,11.84
				c-0.01,1.47-0.75,2.6-1.72,3.61c-1.3,1.24-2.06,2.89-3.17,4.28c-0.9,1.14-1.8,1.29-2.59-0.14c-1.15-3.92-0.24-7.94-0.61-11.9
				c-0.09-4.26,0.51-8.55-0.79-12.73C108.77,360.03,107.19,357.2,108.98,354.55z"/>
			<path class="st24" d="M106.77,409.15c-1.97,0.31-2.73-2.7-4.92-1.77c-2.42-0.56-3.58-2.34-4.09-4.54
				c-2.79-11.94-7.46-23.37-9.62-35.48c-0.29-1.64-1.78-3.49,0.62-4.81c1.34-0.72,2.2-2.37,4.05-2.1
				c3.63,5.73,4.17,12.48,6.09,18.76c2.42,7.91,5.09,15.73,7.41,23.67C106.91,404.94,107.7,406.98,106.77,409.15z"/>
			<path class="st25" d="M408.62,354.29c4.86,4.58,4.01,10.52,3.7,16.24c-0.08,1.45-0.97,2.83,0.25,4.18
				c2.86,3.15,2.19,6.32,0.08,9.51c-2.91-0.42-4.45,2.51-7.03,2.9c-2.4-5.87-1.65-12.31-3.27-18.33c-0.47-1.73-0.47-3.59-0.64-5.4
				c-0.03-2.3,1.59-3.78,2.73-5.5C405.74,356.59,406.12,354.2,408.62,354.29z"/>
			<path class="st26" d="M366.72,411.41c-2.2,1.18-4.58,1.59-7.04,1.72c-1.22-1.73-0.32-3.63-0.44-5.46
				c3.57-4.08,5.62-8.78,5.7-14.27c3.7-7.51,5.24-15.89,9.34-23.25c1.45-1.63,2.56-3.63,4.73-4.5c1.63-0.11,3.29-0.08,2.45,2.28
				c-0.72,2.03-1.04,4.16-1.74,6.2C375.48,386.58,371.03,398.97,366.72,411.41z"/>
			<path class="st27" d="M366.72,411.41c-0.38-6.96,2.85-12.91,5.55-18.94c1.09-2.43,2.32-4.7,2.39-7.41
				c0.1-3.91,1.7-7.46,3.63-10.6c1.51-2.45-0.12-5.64,2.41-7.64c0.18-0.14-1.29-0.36-2.01-0.5c-0.32-0.52-0.26-0.99,0.19-1.41
				c0.92-0.64,1.96-0.8,3.05-0.83c3.61-0.1,4.52,1.74,3.86,5.04c-1.32,6.65-4.42,12.69-6.45,19.09c-0.64,2.01-1.98,3.8-1.79,6.05
				C373.93,399.96,371.35,406.33,366.72,411.41z"/>
			<path class="st28" d="M417.68,383.09c-1.88-7.17,2.05-14.79-1.73-21.86c-0.5-0.93-0.38-2.28-0.29-3.42
				c0.66-7.79-1.56-15.45-1.02-23.23c0.16-2.31-0.77-3.44-3.12-3.31c0.75-1.22,1.99-0.88,3.1-0.96c3.43-1.45,4.08,0.83,4.33,3.35
				c0.69,6.93,1.74,13.82,2.81,20.7c-0.47,1.32-2.29,2.27-1.14,4.05c2.02,6.15,1.59,12.61,2.34,18.92c0.24,2.05-0.51,3.88-2.28,5.14
				C419.86,383.56,418.75,383.2,417.68,383.09z"/>
			<path class="st29" d="M284.71,349.37c-3.15,8.5-4.12,17.72-8.43,25.83c-1.04,1.95,0.32,4.86-2.46,6.08
				c-2.02-1.8-1.28-4.23-1.46-6.44c-0.16-1.93,0.34-3.94-0.72-5.75c-0.48-0.87-1.34-1.62-0.93-2.79c1.88-0.81,2.12-2.39,1.94-4.16
				c-1.73-2.71-1.59-5.83-1.9-8.84c3.28-0.36,3.06,2.14,3.77,4.37c1.73-3.45,3.47-6.91,5.2-10.36
				C281.83,346.93,283.16,348.4,284.71,349.37z"/>
			<path class="st30" d="M99.79,411.28c-1.64,1.71-4.28,0.53-5.97,2.09c-3.31-8.55-5.18-17.53-7.68-26.32
				c-2.65-5.43-3.38-11.43-5.07-17.14c-0.48-1.62-0.49-3.3,0.67-4.74c0.47-0.78,1.26-0.83,2.05-0.89c4.76,2.38,4.22,7.62,5.62,11.51
				c3.41,9.42,5.56,19.29,8.21,28.98C98.23,407,99.92,408.84,99.79,411.28z"/>
			<path class="st31" d="M252.72,403.3c3.04-8.63,6.08-17.26,9.11-25.9c0.35-1.01,0.99-1.68,1.95-2.1c2.4,4.81,1.52,9.91,0.72,14.78
				c-0.44,2.64,0.07,4.35,1.66,6.12c0.39,3.89,0.14,7.56-3.44,10.09C259.6,404.58,255.68,405.54,252.72,403.3z"/>
			<path class="st22" d="M95.82,359.45c1-0.38,1.99-0.76,2.99-1.14c1.69,1.59,2.09,3.83,2.45,5.86c1.58,8.97,5.42,17.34,7.03,25.51
				c0.16-0.96-1.46-3.15,1.26-4.65c1.13,2.58,1.38,5.31,1.82,7.97c0.16,0.44,0.28,0.9,0.4,1.36c0.3,1.88,1.88,3.07,2.62,4.73
				c0.19,0.45,0.31,0.91,0.39,1.38c0.07,2.52-0.34,4.91-1.91,6.98c-0.82,1.07-1.96,0.82-3.05,0.72c-3.53-3.44-3.97-8.34-5.37-12.6
				c-3.29-10.01-6.03-20.22-8.79-30.41C95.15,363.37,94.45,361.32,95.82,359.45z"/>
			<path class="st32" d="M132.69,326.29c1.02-1.56,2.66-0.71,4-1c3.44-1.1,3.15,1.86,3.84,3.62c1.47,3.76-0.56,7.87,1.06,11.65
				c-0.38,7.8-0.96,15.62,1.04,23.32c-0.41,1.79-0.33,3.58,0.01,5.39c0.59,3.14-0.65,5.11-3.81,5.8c-1.5,0.02-3.51,0.21-2.97-2.04
				c0.5-2.09-0.45-3.97-0.19-5.9c1.28-9.36-0.77-18.47-1.73-27.68C133.48,335.08,135.09,330.51,132.69,326.29z"/>
			<path class="st33" d="M170.75,321.47c1.99-0.01,3.98-0.01,5.96-0.02c1.61,6.73,1.54,13.57,1.4,20.41
				c0.05,2.56-0.69,5.33,1.97,7.19c1.06,1.99,1.2,4.27,1.99,6.36c-2.14,2.89-3.99,6.19-8.37,5.96c-1.31-1.3-1.39-2.99-1.28-4.63
				c0.48-7.28-1.5-14.43-1.07-21.7c0.11-1.89-0.64-3.55-1.35-5.22c-0.56-1.69-0.59-3.44-0.53-5.2
				C169.52,323.43,169.9,322.35,170.75,321.47z"/>
			<path class="st34" d="M205.72,325.42c-0.3,1.1-1.12,2.37-0.82,3.27c3.67,11.13-0.17,22.71,2.12,33.84
				c0.76,3.72,0.35,7.15-0.18,10.71c-0.28,0.08-0.56,0.16-0.84,0.25c-3.69-1.17-3.6-4.32-3.65-7.26
				c-0.13-6.88,0.42-13.82-1.69-20.53c-0.53-7.08,0.27-14.21-0.87-21.27C201.76,324.75,203.74,325.09,205.72,325.42z"/>
			<path class="st35" d="M99.79,411.28c-4.68-3.69-3.91-9.66-5.8-14.49c-3.14-8-3.44-16.93-7.6-24.73c-1.26-2.37-0.32-5.64-2.6-7.79
				c1.41-1.3,3.18-1.53,4.97-1.72c0.82,4.45,1.53,8.93,2.5,13.35c1.96,8.98,6.28,17.31,7.52,26.48c0.3,2.23,2.37,3.14,3.07,4.99
				C101.8,409.01,101.76,410.65,99.79,411.28z"/>
			<path class="st24" d="M421.77,354.38c-3.69-2.04-2.05-5.98-2.91-8.95c-1.08-3.72-1.01-7.81-1.17-11.74
				c-0.09-2.19-0.58-3.55-3.06-3.35c2.14-1.28,4.51-1.79,6.95-2.02c4.48-0.81,4.85,2.78,5.12,5.47c0.52,5.21-0.33,10.44-1.02,15.63
				C425.28,351.77,423.46,353.02,421.77,354.38z"/>
			<path class="st36" d="M95.82,359.45c3.05,11.63,5.75,23.37,9.34,34.83c1.45,4.63,3.43,9.15,4.64,13.9
				c-0.96,0.46-1.82,1.28-3.03,0.96c-4.59-15.24-9.2-30.48-13.76-45.73c-0.28-0.93-0.14-1.98-0.2-2.97
				C93.75,359.94,94.59,359.12,95.82,359.45z"/>
			<path class="st37" d="M274.75,396.28c1.45,0.27,2.85,0.73,3.72-1.18c3.01-6.59,6.3-13.1,3.24-20.63
				c3.56-1.04,3.22,1.85,3.37,3.67c0.4,4.91,0.13,9.86,0.17,14.79c0.02,2.14,0.23,4.27,0.45,6.39c-0.18,4.35-2.13,8.11-3.97,11.91
				c-2.65-0.74-4.99-2.69-8-1.99c-2.49-3.3,1.21-6.17,0.63-9.34C274.41,398.7,273.96,397.42,274.75,396.28z"/>
			<path class="st38" d="M377.55,394.25c-1.7-2.02-0.72-3.94,0.11-5.95c2.64-6.42,5.23-12.86,6.99-19.61
				c0.8-3.07-0.55-3.73-3.16-3.48c1.65-3.68,4.94-1.2,7.37-1.96c3.23,0.1,3.56,1.78,2.98,4.61c-1.17,5.63-4.11,10.61-5.53,16.12
				c-0.02,2.14-1.41,3.54-2.7,5C380.69,389.72,379.28,392.17,377.55,394.25z"/>
			<path class="st39" d="M402.63,362.28c1.3,8.24,3.64,16.36,3,24.84c-2.33,0.34-4.66,0.68-6.99,1.02
				c-1.87-1.91-1.38-4.36-1.36-6.62c0.03-3.54-0.88-6.92-1.39-10.37C396.46,366.93,398.47,363.78,402.63,362.28z"/>
			<path class="st40" d="M307.69,381.13c-0.18-3.54,0.6-6.73,2.31-9.95c2.06-3.89,1.95-8.47,2.67-12.77
				c3.51-0.23,6.45,2.37,9.99,1.99c-3.4,5.59-4.65,12.14-7.98,17.76C312.35,379.14,310.02,380.13,307.69,381.13z"/>
			<path class="st41" d="M86.81,387.3c3.82,6.41,3.6,14.14,6.79,20.77c0.82,1.71,0.62,3.51,0.22,5.3c-1.05,1.23-2.45,1.76-3.99,2.03
				c-5.1-5.41-6.18-12.1-6.06-19.16c0.68-2.98,1.36-5.96,2.04-8.93C86.14,386.96,86.47,386.94,86.81,387.3z"/>
			<path class="st42" d="M314.69,378.15c0.55-4.79,2.64-9.08,4.29-13.52c0.75-2.02,1.89-3.32,3.69-4.24
				c0.72-0.03,1.43-0.06,2.15-0.08c1.17-0.84,2.42-1.11,3.79-0.57c1.22,0.75,1.84,1.78,1.57,3.25c-1.86,2.58-4,4.81-4.07,8.53
				c-0.05,2.66-2.44,4.82-4.42,6.77C319.35,378.24,317.02,378.2,314.69,378.15z"/>
			<path class="st43" d="M132.69,326.29c3.36,1.58,3.5,4.72,3,7.56c-1.31,7.48,0.73,14.72,1.67,21.93
				c0.76,5.82-1.07,11.32-0.34,17.06c0.27,2.09,1.1,1.13,1.77,1.45c1.99-0.52,3.95-1.21,6.06-1.06c1.01,0.47,2.58,0.54,1.74,2.37
				c-4.27,2.04-8.81,0.69-13.21,1.06c-4.48-0.48-4.57-0.56-3.71-3.14c0.69-0.47,1.44-0.83,2.19-1.19c2.33-1.26,1.49-3.5,1.52-5.35
				c0.22-13.56-1.81-26.99-2.55-40.5C131.45,326.43,132.07,326.36,132.69,326.29z"/>
			<path class="st44" d="M131.79,373.31c-0.33,0.33-0.67,0.66-1,0.99c-2.22-3.45-2.75-7.1-2.75-11.27
				c-0.01-8.58-0.53-17.19-2.15-25.67c-0.59-3.1-1.22-6.25,0.88-9.11c0.36-0.92,1.23-0.86,1.99-1.02c1.89,0.7,2.1,2.39,2.35,4.03
				c1.83,12.4,2.45,24.89,2.8,37.4C133.95,370.67,133.52,372.22,131.79,373.31z"/>
			<path class="st45" d="M126.76,328.25c0.95,9.68,2.15,19.34,2.75,29.04c0.35,5.68-0.22,11.42,1.28,17.01
				c-0.37,0.21-1.62,0.1-0.65,0.85c0.64,0.49,1.87,0.21,2.83,0.28c0.15,0.59-0.03,1.06-0.54,1.41c-1.54,0.84-3.21,0.76-4.88,0.68
				c-1.63-0.42-3.68-0.52-2.4-3.16c2.44-4.14,0.37-8.48,0.05-12.55c-0.68-8.69-0.13-17.51-2.3-26.07c-0.33-2.16-1.09-4.32-0.16-6.51
				C123.77,327.63,125.44,328.67,126.76,328.25z"/>
			<path class="st46" d="M116.9,380.36c-1.22-5.56-2.17-10.97-1.64-16.89c0.5-5.56-1.95-11.29-1.5-17.14
				c0.21-2.8,0.01-5.64,0.05-8.46c0.02-1.89-0.02-3.7-2.11-4.6c0.01-2.39,1.62-1.99,3.12-1.78c0.94,0.88,1.75,1.85,2.31,3.03
				c0.06,0.47,0.05,0.93-0.01,1.4c1.15,8.65,0.95,17.37,2.24,26.06c0.81,5.44,1.77,11.4,0.29,17.12c-0.13,0.5-0.35,0.95-0.66,1.35
				C118.26,380.87,117.57,380.92,116.9,380.36z"/>
			<path class="st47" d="M125.79,375.3c-0.11,1.97,1.47,0.56,2.1,1.05c0.24,0.56,0.11,1.03-0.37,1.41c-1.23,0.75-2.59,0.8-3.98,0.72
				c-1.8-0.29-3.42-0.76-2.76-3.19c0.89-13.27-1.5-26.41-1.46-39.65c0.01-1.81-0.46-3.66,0.43-5.4c0.65-1.33,1.98-0.72,2.99-1.03
				c1.2,1.89,1.09,4,1.05,6.1c0.83,3.51,0.85,7.16,0.86,10.68c0.05,8.72,1.46,17.32,1.85,26
				C126.55,373.22,126.47,374.3,125.79,375.3z"/>
			<path class="st31" d="M239.73,399.32c-0.2-0.26-0.62-0.68-0.56-0.76c2.5-3.41,0.36-7.96,2.8-11.37
				c4.57-1.17,8.14,0.32,10.89,4.05c-2.56,0.18-2.94,1.88-3.23,4.05c-0.33,2.38-1.24,4.68-1.91,7.02
				C244.97,401.52,241.68,402.21,239.73,399.32z"/>
			<path class="st48" d="M210.76,346.36c-2.22-3.18-2.21-6.81-2-10.44c0.21-3.68-0.26-7.21-2-10.51c3.95,0.51,7.26,2,9.01,5.88
				c2.1,5.35,0.91,10.58-0.59,15.8C213.45,348.39,212.14,347.18,210.76,346.36z"/>
			<path class="st48" d="M310.73,357.29c-2.66,2.73-4.18,6.12-4.99,9.73c-0.82,3.68-1.79,7.23-4.09,10.28
				c-2.17-0.49-4.67-0.43-5.43-3.27c1.56-5.65,3.44-11.2,5.24-16.78c0.32-0.99,0.62-2.35,2.26-1.96
				C305.72,357.15,308.77,355.31,310.73,357.29z"/>
			<path class="st49" d="M232.73,338.38c-0.03,4.4-0.06,8.8-0.09,13.2c-0.41,0.19-0.83,0.26-1.27,0.21
				c-1.76-0.45-3.48-0.11-5.2,0.32c-0.76,0.08-1.48-0.04-2.17-0.39c-1.19-0.89-1.42-2.2-1.55-3.55c0.78-3.87-2.33-8.17,1.27-11.74
				C226.72,337.07,229.73,337.73,232.73,338.38z"/>
			<path class="st50" d="M275.68,399.21c1.11,3.69-2.6,6.44-1.97,10.04c-3.78-0.56-7.8-0.24-11-2.96c1.57-3.21,2.3-6.67,3-10.14
				C269.9,394.36,272.67,397.21,275.68,399.21z"/>
			<path class="st51" d="M110.76,394.3c-2.12-2.37-0.13-5.48-1.7-8.76c-0.17,2.66-0.3,4.58-0.47,7.22
				c-4.34-11.65-7.92-22.8-9.8-34.45c0.46-0.76,1.16-0.98,2-0.85c3.44,4.08,3.94,9.29,5.2,14.15c0.78,3.03,1.57,5.94,3.84,9.22
				c-0.07-0.17,0.31-1.24-0.19-0.8c-0.23,0.21-0.36,0.13-0.46-0.2c-0.56-1.9-1.27-3.84,1.6-4.53c0.01,4.33,0.03,8.67,0.04,13
				C112.47,390.32,112.43,392.32,110.76,394.3z"/>
			<path class="st52" d="M86.81,387.3c-0.33,0-0.67,0-1,0c-1.67-0.99-3.34-1.97-5.01-2.96c-3.16-3.56-4.2-8.03-5.17-12.47
				c-0.4-1.85,0.36-3.58,2.15-4.61c1.03-1.24,2.48-1.69,3.96-2.09C82.37,372.78,85.69,379.79,86.81,387.3z"/>
			<path class="st53" d="M339.67,415.27c-1.44,1.64-3.3,0.87-5.03,0.86c-2.3-1.25-1.08-3.13-0.83-4.82
				c0.75-5.13,3.63-9.55,4.88-14.52c0.85-3.37,1.64-6.73,1.98-10.19c0.16-0.52,0.42-0.97,0.79-1.37c0.51-0.26,1-0.23,1.48,0.09
				c1.58,2.73,0.9,6.11,2.49,8.84c0.71,2.6,0.6,5.13-0.7,7.54c-0.25,0.42-0.56,0.79-0.9,1.13c-1.58,0.93-1.97,2.42-1.92,4.13
				C341.99,409.95,340.95,412.64,339.67,415.27z"/>
			<path class="st54" d="M420.68,382.49c2.56-6.75-0.82-13.43-0.31-20.17c0.1-1.27,0.18-2.59,0.25-3.89
				c2.01,2.32,4.01,4.65,6.02,6.97c2.84,4.76,1.03,9.82,0.93,14.77C425.2,380.69,423.26,382.54,420.68,382.49z"/>
			<path class="st55" d="M225.67,380.28c-1.19,5.12,0.66,10.03,1.06,15.04c-3.27-0.19-6-2.01-9-2.99
				c-1.41-4.52-2.57-9.03,0.85-13.24C221.1,378.51,223.51,378.66,225.67,380.28z"/>
			<path class="st56" d="M180.83,322.29c2.75-0.41,5.24,0.96,7.91,1.12c1.15,2.69-0.93,5.19-0.29,8.03
				c0.69,3.02-0.21,6.46,3.35,8.32c0.31,0.16-0.14,0.85-0.54,1.17c-2.5,1.07-5.02,1-7.58,0.24c-4.09-5.22-4.48-11.42-4.63-17.67
				C179.05,322.68,179.81,322.07,180.83,322.29z"/>
			<path class="st57" d="M131.79,373.31c1.29-2.55,1.17-5.27,1.01-8.02c-0.7-11.95-0.99-23.94-3.13-35.77
				c-0.14-0.79-0.6-1.53-0.92-2.29c0.44-0.96,1.24-0.9,2.08-0.74c0.85,0.95,1.99,1.62,1.98,3.22c-0.08,13.48,2.67,26.82,1.96,40.33
				C134.67,371.82,135.36,374.58,131.79,373.31z"/>
			<path class="st58" d="M201.81,386.25c-3.39-2.09-7.84-0.19-11.07-2.92c1.4-4.32,1.04-8.94,2.22-13.3
				c0.97-1.43,2.17-3.13,3.49-0.59c1.05,2.02,2.99,2.96,4.32,4.58c2.25,3.14-0.13,7.44,2.66,10.54
				C203.83,385,203.18,386.45,201.81,386.25z"/>
			<path class="st59" d="M180.83,322.29c-2.14,1.77-0.51,3.67-0.14,5.49c0.87,4.3,1.15,8.76,3.38,12.7
				c-1.18,2.71-3.52,2.81-5.98,2.66c-0.49-0.19-0.94-0.47-1.33-0.83c-0.71-5.79,1.57-11.82-1.55-17.44
				c-0.79-1.42,1.11-2.22,1.51-3.42C178.15,321.46,179.7,320.82,180.83,322.29z"/>
			<path class="st60" d="M119.76,330.26c0.34,1.26,0.97,2.51,0.98,3.77c0.08,10.86,1.14,21.65,1.74,32.46
				c0.17,3.04,1.23,6.69-0.69,9.81c-1.62-1-1.88-2.59-2-4.31c-0.86-12.56-2.2-25.09-2.99-37.66l-0.05-0.02
				c-0.74-0.8-1.37-1.64-0.95-2.83C117.12,331.07,118.44,330.66,119.76,330.26z"/>
			<path class="st61" d="M110.79,375.31c-1.96,1.68-0.34,4.14-1.66,6.75c-5.57-7.57-5.24-16.71-8.33-24.59
				c1-0.31,2.01-0.62,3.01-0.93c3.39,2.58,1.45,7.15,3.81,10.02c0.38-1.51-0.62-3.84,2.17-4.24
				C111.13,366.57,110.83,370.95,110.79,375.31z"/>
			<path class="st34" d="M303.67,415.2c-4.83-0.7-10.13,0.35-14.01-3.8c-2.73-3.31,0.58-4.64,2.15-6.54
				c3.28-0.06,6.55-0.18,9.73-1.15c2.45,0.7,2.53,2.74,1.67,4.31C301.73,410.67,302.52,412.87,303.67,415.2z"/>
			<path class="st62" d="M77.79,367.25c-1.34,3.18-1.42,6.02,0.68,9.19c1.45,2.19,1.6,5.23,2.33,7.9c-1.34-0.38-2.68-0.75-4.01-1.13
				c-5.37-1.44-7.55-5.17-6.99-11.95C72.17,369.35,74.43,367.21,77.79,367.25z"/>
			<path class="st63" d="M289.41,364.45c3.73-1.85,1.8-5.23,2.3-7.95c-1.25-0.57-2.2,1.7-3.1,0.37c-0.76-1.14,0.45-2.05,1.3-2.84
				c3.32-1.83,6.58-1.41,9.81,0.26c0.39,6.27-3.36,11.19-5.49,16.63c-0.24,0.62-1.05,0.71-1.73,0.4
				C291.4,369.06,290.62,366.66,289.41,364.45z"/>
			<path class="st34" d="M201.81,386.25c0.3-0.55,0.98-1.46,0.84-1.6c-2.84-3.05-1.29-7.23-2.83-10.58c2.2-1.23,4.76,0.81,6.93-0.76
				c0,0,0.1-0.07,0.1-0.07c1.89,4.93,3.79,9.87,0.87,15.08C205.51,388.31,203.26,388.4,201.81,386.25z"/>
			<path class="st64" d="M83.77,396.23c1.86,6.44,3.13,13.06,6.06,19.16c-1.32,0.64-2.64,1.28-3.97,1.92
				c-0.99,0.65-2.25,0.53-2.44-0.49c-0.87-4.52-4.46-8.53-2.62-13.56C81.11,400.62,81.38,397.98,83.77,396.23z"/>
			<path class="st65" d="M341.64,386.29c0.18,5.71-1.48,11.02-3.58,16.24c-1.76,4.38-3.77,8.7-3.42,13.61
				c-1.96-0.01-3.92-0.01-5.89-0.02c0.6-2.76,1.77-5.32,2.9-7.88c1.36-2.32,2.73-4.64,4.09-6.96c0.97-2.17,0.14-4.48,0.5-6.69
				C337.84,391.68,337.19,387.32,341.64,386.29z"/>
			<path class="st66" d="M292.65,371.31c3.23-5.31,4.6-11.39,7.06-17.02c1.37,0.19,2.95-0.45,4.01,1.01
				c-3.32,6.04-2.9,13.51-7.3,19.14C292.55,375.45,292.01,375,292.65,371.31z"/>
			<path class="st67" d="M191.74,323.45c1.78-0.27,3.48-0.11,5,0.98c2.56,5.71,2.8,11.72,2.24,17.83c-2.64,1.4-4.54,0.4-6.07-1.85
				C190.18,334.92,188.84,329.33,191.74,323.45z"/>
			<path class="st68" d="M396.62,370.24c2.69,5.74,1.96,11.87,2.02,17.9c-1.52,0.99-3.15,1.43-4.95,1
				c-0.05-4.34-1.26-8.42-2.85-12.41c0.57-2.79,2.44-4.71,4.4-6.57C395.71,369.94,396.17,369.98,396.62,370.24z"/>
			<path class="st69" d="M341.67,332.5c1,0,2,0,3-0.01c3.26,4.55,2.81,10,3.59,15.13c0.17,1.1-0.32,2.32,0.89,3.1
				c0.84,0.32,1.73,0.45,2.58,0.74c0.45,0.19,0.82,0.47,1.13,0.84c0.1,0.87-0.39,1.37-1.09,1.74c-0.48,0.21-0.98,0.34-1.49,0.42
				c-0.53,0.09-1.06,0.12-1.59,0.13c-2.16-0.1-4.45,0.4-6.29-1.27C341.32,346.42,339.9,339.52,341.67,332.5z"/>
			<path class="st70" d="M218.77,379.19c-2.13,4.24-0.08,8.81-1.05,13.14c-1.41-0.04-2.41-0.7-2.99-2
				c-0.63-0.77-1.29-0.83-1.98-0.09c-1.11,0.02-2.29,0.25-3.03-0.93c4.09-3.45,1.1-8.1,2.03-12.08
				C214.7,375.69,217.16,375.93,218.77,379.19z"/>
			<path class="st71" d="M198.75,342.34c-1.37-5.89-1.76-11.89-2-17.91c1.01,0,2.02-0.01,3.03-0.01c3.64,3.07,1.61,7.36,2.19,11.04
				c0.5,3.17-0.09,6.51-0.2,9.78C199.46,345.63,198.57,344.54,198.75,342.34z"/>
			<path class="st35" d="M425.67,349.4c-1.03-3.37-1-6.62-0.38-10.18c0.69-3.93,1.65-8.71-3.72-10.91c1.44-1.23,3.23-1.58,5-2
				c3.1-0.98,3.03,1.43,3.27,3.22c0.44,3.2-0.16,6.45,0.2,9.66c-0.01,1.7-1.51,3.25-0.52,5.07
				C428.79,346.39,427.71,348.26,425.67,349.4z"/>
			<path class="st72" d="M341.67,332.5c0.53,6.01,1.02,12.02,1.64,18.02c0.11,1.09-0.3,1.9-0.64,2.81
				c-0.98,0.88-2.05,0.86-3.18,0.31c-0.79-0.64-1.5-1.48-1.54-2.44c-0.21-5.32-1.33-10.64-0.32-15.98
				C338.7,333.89,339.42,332.06,341.67,332.5z"/>
			<path class="st73" d="M69.79,371.26c0.6,2.51,2.29,4.61,2.36,7.39c0.07,2.72,2.77,3.35,4.63,4.57
				c-4.14-0.34-8.27-0.72-12.01-2.79c-1.58-1.36-1.96-3.19-1.98-5.15C64.88,373.49,66.98,371.76,69.79,371.26z"/>
			<path class="st74" d="M191.74,323.45c0.09,5.73-0.59,11.54,1.98,16.98c-0.73,0.49-1.39,0.41-1.97-0.27
				c-3.73-0.78-5.46-2.01-4.4-6.75c0.7-3.11-1.35-6.89,1.38-10C189.74,323.43,190.74,323.44,191.74,323.45z"/>
			<path class="st75" d="M193.65,370.03c0.85,3.2-1.46,6.29-0.13,9.65c0.74,1.87-1.97,2.3-2.78,3.65c-2.26,0.1-4.1-1.04-5.97-2.07
				c0.26-3.05,0.45-6.1,1.59-9C188.56,370.74,190.74,369.18,193.65,370.03z"/>
			<path class="st76" d="M382.65,333.49c2.72-0.27,5.32-1.58,8.14-0.95c0.67,0.7,1.72,0.91,2.3,1.73c0.54,0.76,0.97,1.65,2.06,1.78
				c1.43,0.32,3.1,0.14,3.88,1.83c0.11,0.73-0.12,1.31-0.76,1.7c-1.49,0.27-3.04-0.18-4.5,0.37c-0.43,0.1-0.86,0.15-1.29,0.18
				c-2.17,0.06-4.33,0.14-6.41,0.89c-0.42,0.2-0.84,0.36-1.27,0.53c-0.67,0.28-1.35,0.49-2.07,0.54c-1.25-0.11-2.56-0.43-2.08-2.02
				C381.31,337.88,380.96,335.37,382.65,333.49z"/>
			<path class="st33" d="M179.75,380.16c-1.29,0.06-2.59,0.12-3.88,0.18c-1.37-0.05-2.77,0.19-4.12-0.29c-1.34-0.45-2.8-0.58-4-1.42
				c-0.32-0.38-0.5-0.83-0.55-1.32c0.05-0.49,0.22-0.93,0.53-1.32c1.02-0.72,2.15-0.75,3.32-0.58c0.77,0.08,1.53,0.48,2.29-0.01
				c1.01-3.33-0.97-7.02,1.31-10.17c3.35,1.49,5.08,4.54,7.08,7.35C182.25,375.42,182.3,378.13,179.75,380.16z"/>
			<path class="st77" d="M291.7,405.46c0.35,2.33-3.7,3.15-2.04,5.93c-2.64-0.34-5.34,2.09-7.95-0.15
				c-0.97-4.32,2.49-7.42,3.12-11.29C287.98,400.71,290.11,402.75,291.7,405.46z"/>
			<path class="st78" d="M370.68,333.5c2.99-0.01,5.97-0.01,8.96-0.02c0.54,3.38-2.17,6.54-0.67,9.99c-0.17,1.4-1.23,1.98-2.34,2.52
				c-0.49,0.18-0.99,0.28-1.51,0.31c-0.54,0.02-1.06-0.06-1.57-0.21C368.86,342.74,370.31,338,370.68,333.5z"/>
			<path class="st79" d="M427.58,380.16c-2.21-4.8-0.13-9.88-0.93-14.77c2.74,0.14,3.94,2.67,6.01,3.85
				c0.11,1.84-0.42,3.66,1.16,5.38c1.06,1.16,0.45,2.78-1.17,3.59C430.95,378.87,429.27,379.51,427.58,380.16z"/>
			<path class="st80" d="M360.7,332.49c2.32,0,4.64,0,6.96,0c2.11,1.61,2.61,3.91,2.05,6.25c-0.8,3.39-0.38,6.5,1.13,9.55
				c-1.41,1.53-3.41,1.31-5.18,1.77c-0.82,0.04-1.58-0.12-2.22-0.66C363.13,343.67,363.03,337.9,360.7,332.49z"/>
			<path class="st81" d="M167.78,378.3c1.37,0.13,2.86-0.23,3.95,1.02c-0.51,0.51-1.17,0.45-1.81,0.45c0.32,0.27,0.7-0.02,1.03,0.11
				c1.32,0.5,2.98,0.1,3.96,1.49c-0.14,3-0.27,6.01-0.41,9.01c-1.07,4.13-2.9,1.25-4.52,0.5c-0.82-0.59-1.61-1.21-2.11-2.11
				c-1.06-2.19-1.67-4.53-1.93-6.91C165.78,380.42,165.2,378.44,167.78,378.3z"/>
			<path class="st82" d="M429.6,340.38c-2.49-3.06-0.32-6.57-0.95-9.82c-0.32-1.64,0.65-3.82-2.08-4.25c1.06-1.22,2.43-1.82,4-2.01
				c4.24,1.23,4.04,4.65,3.61,7.9c-0.23,1.75-0.77,3.53-1.53,5.19c-0.97,2.02-1.94,4.04-2.91,6.06
				C428.85,342.46,428.82,341.44,429.6,340.38z"/>
			<path class="st83" d="M80.79,403.25c0.97,4.94,2.32,9.75,5.07,14.06c-0.81,1.31-1.66,2.53-3.34,1.07
				c-0.91-0.78-1.79-1.47-2.81-0.16c-2.48-0.22-3.76-1.32-2.92-3.97C77.17,410.23,78.93,406.72,80.79,403.25z"/>
			<path class="st84" d="M398.71,338.26c-1.43-1.59-3.32-0.75-5.01-0.97c-1.73-1.99,1.98-2.84,0.98-4.68c3.3-0.13,6.6-0.25,9.9-0.38
				c0,0,0.1,0.16,0.1,0.16c3.38,2.72,2.16,5.96,1.06,9.2c-0.85,0.85-1.84,1.26-3.05,0.98c-0.75-0.54-1.03-1.4-1.44-2.17
				C400.65,339.41,399.31,339.27,398.71,338.26z"/>
			<path class="st85" d="M214.74,347.15c0.34-5.29,0.68-10.58,1.03-15.87c0.99,0.71,1.98,1.42,2.96,2.14
				c3.07,4.59,2.72,9.67,2.07,14.78C218.44,349.85,216.49,349.1,214.74,347.15z"/>
			<path class="st86" d="M154.87,404.33c-1.13,1.55-2.7,0.82-4.14,0.8c-5.87-0.89-7.93-5.71-5.32-12.46
				c0.62-0.97,1.55-1.27,2.64-1.26c2.46,0.31,3.09,2.28,3.56,4.18C152.35,398.65,153.57,401.5,154.87,404.33z"/>
			<path class="st87" d="M162.78,404.11c-0.35,0-0.7,0.01-1.04,0.01c-3.21-0.18-5.05-1.63-5.34-5.05c-0.22-2.61-1.3-5.04-2.58-7.34
				c-0.66-0.7-1.42-1.36-1.21-2.49c1.81-1.49,3.98-1.74,6.21-1.76c0.51,0.09,0.97,0.28,1.39,0.56c0.6,0.51,0.99,1.13,1.09,1.92
				c-0.41,2.87,0.93,5.4,1.54,8.08C163.28,400.01,164.42,402.11,162.78,404.11z"/>
			<path class="st88" d="M303.67,415.2c-3.63-1.3-4.32-3.42-1.91-6.53c1.09-1.41,1.5-2.93-0.03-4.37c-0.64-0.61-0.66-1.27-0.15-1.97
				c1.71-0.85,2.99-2.03,3.13-4.09c1.63,2.09,0.54,5.32,2.97,7.07c0.26,0.61,0.44,1.32,0.11,1.86c-1.74,2.9-1.4,5.53,0.84,7.99
				C306.99,415.18,305.33,415.19,303.67,415.2z"/>
			<path class="st89" d="M360.7,332.49c5.12,4.88,4.15,10.83,2.96,16.82c-0.22,0.82-0.72,1.35-1.57,1.52
				c-2.31-0.14-2.81-1.98-2.48-3.54c0.82-3.83-0.77-7.14-1.7-10.61c-0.04-1.64,0.54-3.04,1.69-4.2
				C359.98,332.48,360.34,332.49,360.7,332.49z"/>
			<path class="st90" d="M140.67,340.32c-2.01-0.96-1.27-2.44-1.11-4.13c0.37-3.89,1.02-8.05-2.87-10.9
				c1.83-1.8,4.03-0.73,6.09-0.78c1.52,2.07,1.95,4.68,3.37,6.81C145.32,334.93,143.63,338.01,140.67,340.32z"/>
			<path class="st91" d="M329.89,363.21c0.21-1.29-0.64-2.02-1.48-2.75c0.85-1.13-1.91-1.02-0.78-2.26c2.04-2.72,0.48-5.93,1.2-8.84
				c2.45-0.37,3.88,1.32,5.47,2.7c1.38,2.2,1.14,4.77,1.65,7.17c0.39,1.83-0.56,2.79-2.23,3.22
				C332.45,362.7,331.33,363.75,329.89,363.21z"/>
			<path class="st92" d="M112.85,407.47c0.37-2.78,0.74-5.56,1.11-8.34c0.84-0.72,1.79-0.71,2.79-0.45c0.7,0.24,1.37,0.55,2.05,0.85
				c6.19,1.54,6.31,1.74,4.01,6.61C119.49,406.58,116.17,407.02,112.85,407.47z"/>
			<path class="st93" d="M337.64,335.21c2.37,5.84,0.23,12.19,2.04,18.1c-1.63,1.28-3.13,1.21-4.48-0.41
				c-1.56-5.44-0.58-11.12-1.61-16.62C334.59,334.62,336.32,335.68,337.64,335.21z"/>
			<path class="st94" d="M348.67,352.32c-4.42-2.13-0.71-6.19-2.09-9.37c-1.29-2.97-1.63-6.88-1.91-10.45c1.3-0.54,2.06,0.56,3.03,1
				C352.02,337.98,352.54,347.9,348.67,352.32z"/>
			<path class="st95" d="M109.8,362.31c-2.21,2.36-0.11,5.61-1.59,8.55c-3.25-4.54-3.25-9.61-4.4-14.33
				c1.72-0.66,3.44-1.32,5.16-1.98C109.52,357.11,110.04,359.67,109.8,362.31z"/>
			<path class="st52" d="M432.65,337.38c0.39-4.53,1.9-9.24-2.07-13.08c2.64-1.59,5.28-3.19,8.56-5.16
				C437.51,325.89,435.97,331.93,432.65,337.38z"/>
			<path class="st96" d="M370.7,348.2c-3.36-1.19-3.69-3.95-2.81-6.66c1.02-3.14,0.8-6.05-0.23-9.04c1.26-0.44,2.05,0.57,3.02,1
				c1.39,2.05,0.88,4.37,0.98,6.61c0.11,2.3,0.14,4.65,3.11,5.27c0.02,2.12-1.88,2.87-3,4.17c-0.46,0.13-0.9,0.06-1.31-0.19
				C370.22,348.91,370.3,348.52,370.7,348.2z"/>
			<path class="st97" d="M352.77,352.39c-0.36-0.03-0.71-0.07-1.07-0.1c-0.01-4.56-0.72-9.07-1.02-13.6
				c-0.12-1.78-0.24-3.63,0.99-5.18c1.33-0.1,2.65-0.2,3.98-0.31c1.26,5.42,0.59,10.95,0.91,16.43c-0.17,0.7-0.46,1.35-0.84,1.97
				c-0.26,0.41-0.59,0.76-0.97,1.06C354.04,352.94,353.37,352.95,352.77,352.39z"/>
			<path class="st44" d="M152.79,389.26c0.4,0.84,1.14,1.02,1.97,1.05c-1.71,1.3-0.81,2.57-0.41,4.24c0.79,3.35,2.53,6.3,3.39,9.58
				c-0.96,0.07-1.91,0.14-2.87,0.21c-3.63-0.83-2.96-4.3-4.02-6.66c-0.87-1.95-0.19-4.75-3.2-5.44c1.19-2.1,1.05-5.87,5.26-4.25
				C153.15,388.43,153.1,388.86,152.79,389.26z"/>
			<path class="st98" d="M339.67,415.27c-0.61-4.18,1.53-8.02,1.5-12.16c-0.01-0.95,1.62-0.75,2.59-0.72
				c0.14,2.27-1.74,4.48-0.17,6.77c2.18,1.68,4.91,0.25,7.2,1.3c0.45,0.21,0.8,0.53,1.07,0.95
				C349.04,416.62,344.11,415.15,339.67,415.27z"/>
			<path class="st99" d="M391.66,376.33c1.72,4.1,4.82,7.99,2.02,12.81c-1.42,0.1-2.93,0.59-4.03-0.84c-1.7-1.96-1.41-4.48-1.9-6.78
				C388,379,388.55,376.7,391.66,376.33z"/>
			<path class="st100" d="M144.68,324.29c5.77-3.37,11.87-1.5,17.88-1.15c1.9-0.5,3.89-1.67,5.4,0.73
				c-1.03,2.04-3.03,1.84-4.73,1.76c-5.44-0.23-10.37,1.28-15.02,3.92C144.91,329.22,145.56,326.25,144.68,324.29z"/>
			<path class="st101" d="M220.74,348.33c-1.75-4.82-0.71-10.02-2-14.9c1.66,1,3.32,2,4.99,3c-1.15,3.97,0.58,7.93,0.02,11.9
				c-0.72,0.77-1.56,0.86-2.5,0.48C221.07,348.64,220.9,348.49,220.74,348.33z"/>
			<path class="st102" d="M351.67,333.5c-1.13,6.26,2.88,12.52,0.03,18.78c-1.01,0.01-2.02,0.02-3.02,0.03
				c2.16-6.4,1.43-12.65-0.97-18.82C349.02,333.5,350.35,333.5,351.67,333.5z"/>
			<path class="st103" d="M333.68,352.32c-1.61-0.98-3.23-1.97-4.84-2.95c-0.09-1.66-0.17-3.33-0.26-4.99
				c-0.1-1.51,0.25-2.9,1.06-4.18c0.74-0.94,1.48-1.87,2.23-2.81c3.04,1.81,2.18,5.06,2.7,7.73c0.44,2.23-0.04,4.59,0.39,6.87
				C334.67,352.62,334.24,352.72,333.68,352.32z"/>
			<path class="st104" d="M162.78,404.11c-0.75-3.1-0.71-6.36-2.52-9.23c-1.13-1.78-0.46-3.78,0.51-5.56
				c2.44-1.57,3.61-0.13,4.24,1.97c0.87,2.93,1.85,5.9,0.78,9.01C164.89,401.66,165.73,404.37,162.78,404.11z"/>
			<path class="st105" d="M179.75,380.16c0.93-2.58,1.17-5.26,1.05-7.98c2.07-1.49,4.06-1.58,5.96,0.29
				c-0.38,2.99,1.21,6.42-1.99,8.78C183.1,380.89,181.42,380.53,179.75,380.16z"/>
			<path class="st106" d="M139.82,405.12c-1.34,0.09-2.68,0.18-4.02,0.27c-2.35-2.39-4.4-5.17-7.99-5.86
				c-0.43-0.81-0.02-1.34,0.6-1.8c2-0.84,4.27-0.71,6.2-1.79c0.49-0.14,0.99-0.16,1.49-0.1
				C140.75,398.01,142.01,401.17,139.82,405.12z"/>
			<path class="st107" d="M145.7,393.25c-1.01,5.58,0.94,10.18,5.04,11.88c-2.65,0-5.3-0.01-7.94-0.01
				c-1.86-3.26-2.57-6.69-1.54-10.38c0.17-0.43,0.44-0.78,0.8-1.07c0.75-0.51,1.56-0.88,2.48-0.96
				C144.99,392.74,145.38,392.92,145.7,393.25z"/>
			<path class="st108" d="M165.77,400.29c-0.64-2.77-1.45-5.52-1.86-8.32c-0.3-2.04-1.19-2.85-3.16-2.66
				c-0.34-0.31-0.69-0.62-1.03-0.94c2.46-2.14,4.91-1.01,7.36,0.02c2.05,4.11,2.72,8.64,3.91,13.02
				C168.65,403.9,167.83,399.21,165.77,400.29z"/>
			<path class="st109" d="M432.64,378.22c0.7-1.16,1.17-2.42,0.12-3.54c-1.73-1.84-0.81-3.61-0.1-5.43
				c2.83,1.65,5.65,3.29,8.88,5.17C438.56,376.68,435.7,377.67,432.64,378.22z"/>
			<path class="st110" d="M310.78,408.01c2.52,0.6,4.23,2.95,6.91,3.19c0.74,1.62,1.73,3.15,1.96,4.97
				c-3.34-0.09-6.78,0.86-9.94-1.01C308.45,412.53,310.12,410.35,310.78,408.01z"/>
			<path class="st42" d="M310.78,408.01c1.74,2.7-0.93,4.73-1.07,7.15c-0.36,0-0.71,0.01-1.07,0.01c-4.88-2.1-4.88-2.1-0.96-9.85
				C309.18,405.68,309.85,407,310.78,408.01z"/>
			<path class="st111" d="M76.8,414.25c0.17,1.91,1.9,2.68,2.92,3.97c1.06,4.9-3.18,5.93-5.89,8.09c-0.58-0.12-0.93-0.47-1.05-1.05
				C74.12,421.59,75.46,417.92,76.8,414.25z"/>
			<path class="st112" d="M378.84,343.41c-3.39-3.61-0.63-6.72,0.81-9.94c1,0,2,0.01,3,0.01c-0.32,2.24,0.48,4.49-0.74,6.78
				c-0.84,1.58,1.14,0.69,1.76,1.06c0.2,2.11-1.62,2-2.82,2.57C380.11,344.02,379.42,343.95,378.84,343.41z"/>
			<path class="st113" d="M157.74,404.12c-3.38-2.81-3.59-7.05-5.02-10.77c-0.97-2.52,1.72-1.82,2.04-3.04
				c1.16,3.14,3.19,6.07,2.98,9.58c-0.18,3.01,2.46,3.03,3.99,4.24C160.4,404.12,159.07,404.12,157.74,404.12z"/>
			<path class="st114" d="M355.67,350.32c-1.4-4.61,0.92-9.54-1.25-14.15c-0.31-0.65,0.79-1.97,1.23-2.98
				c0.48-1.04,1.35-0.81,2.19-0.67c1.09,1.24,0.39,2.64,0.35,3.98c0.79,3.57,0.01,7.19,0.38,10.79
				C358.73,348.92,357.99,350.61,355.67,350.32z"/>
			<path class="st115" d="M127.77,399.28c4.93-0.93,7.02,1.88,8.04,6.1c-2.12,1.83-4.04,0.21-6.02-0.36
				c-0.97-1.07-1.22-2.63-2.4-3.57c-0.32-0.29-0.58-0.62-0.82-0.98c-0.14-0.42-0.11-0.84,0.06-1.25
				C127.02,398.95,127.4,398.99,127.77,399.28z"/>
			<path class="st116" d="M334.69,352.3c-1.85-4.8-0.7-10.16-2.82-14.91c0-1.25,1.01-0.94,1.72-1.1c2.57,2.78,1.88,6.29,2.07,9.58
				c0.12,2.15,0.02,4.32,0.02,6.47C335.33,352.66,335,352.67,334.69,352.3z"/>
			<path class="st117" d="M141.77,394.66c0.34,3.48,0.68,6.97,1.02,10.45c-0.99,0-1.98,0-2.97,0c0.5-3.78-0.49-6.87-4.04-8.78
				c0.34-0.59,0.87-0.97,1.43-1.32c0.94-0.61,1.8-1.39,3-1.43C140.94,393.65,141.59,393.82,141.77,394.66z"/>
			<path class="st118" d="M171,401.42c-2.68-3.6-4.12-7.54-3.24-12.1c0.31-0.35,0.65-0.39,1.01-0.07c0.67,0.34,1.34,0.67,2.01,1.01
				c0.86,3.02,1.25,6.19,2.81,9C173.38,400.75,172.39,401.32,171,401.42z"/>
			<path class="st119" d="M319.65,416.17c-2.56-0.9-2.96-2.66-1.96-4.97c2.68,0.03,5.36,0.07,8.04,0.1
				C324.27,413.63,323.86,417.27,319.65,416.17z"/>
			<path class="st120" d="M126.6,400.2c0.39,0.03,0.78,0.06,1.17,0.09c0.9,1.35,1.17,2.71,0.05,4.09c-1.1,2.21-3.05,1.98-5.01,1.75
				c1.79-4.98-2.25-4.76-5.04-5.65c0.7-1.12,1.84-1.34,3.03-1.47C122.82,398.95,124.9,398.66,126.6,400.2z"/>
			<path class="st121" d="M173.6,399.26c-4.19-1.98-3.42-5.52-2.81-9c1.23,0.47,2.41,2.61,3.71,0.1
				C174.7,393.38,175.59,396.47,173.6,399.26z"/>
			<path class="st122" d="M351.86,411.41c-0.4-0.05-0.79-0.1-1.19-0.15c-0.33-0.48-0.29-0.93,0.12-1.35
				c2.79-1.02,5.42-2.81,8.63-1.74c2.49,1.52,0.1,3.31,0.27,4.96C356.81,413.76,354.11,413.62,351.86,411.41z"/>
			<path class="st123" d="M388.63,381.26c1.4,2.19,0.96,4.65,1.02,7.04c-2.15-0.88-4.16-0.6-6.05,0.7c0.68-1.57,1.35-3.14,2.03-4.71
				C385.77,382.41,385.57,380.22,388.63,381.26z"/>
			<path class="st124" d="M144.68,324.29c3.38,0.33,1.26,3.65,2.73,5.02c0.81,1.89-0.19,2.19-1.76,1.99
				c-2.96-1.42-3.05-4.04-2.88-6.79C143.41,324.44,144.05,324.36,144.68,324.29z"/>
			<path class="st125" d="M62.8,375.27c1.44,1.41,1.45,3.38,1.98,5.15c-0.93,0.17-1.78,1.02-2.78,0.41
				c-1.18-0.72-3.36-0.17-3.52-2.02c-0.12-1.35,1.46-1.99,2.62-2.6C61.66,375.91,62.23,375.59,62.8,375.27z"/>
			<path class="st126" d="M331.66,408.23c0.11,3.03,0.55,6.17-2.9,7.88c-2.15-1.04-0.01-4.04-2.29-5.02
				C328.2,410.14,329.93,409.18,331.66,408.23z"/>
			<path class="st127" d="M167.77,324.21c-1.5-1.5-3.48-0.66-5.21-1.06c2.25-2.93,5.38-1.55,8.2-1.67c0,0.95,0.01,1.9,0.01,2.85
				c-0.33,0.34-0.73,0.57-1.19,0.69C168.84,325.06,168.2,324.87,167.77,324.21z"/>
			<path class="st128" d="M174.91,381.36c-2.05-0.41-4.1-0.82-6.28-1.26c0.92-1.33,2.12-0.55,3.09-0.79
				c1.43,0.13,2.97-0.18,4.14,1.03C175.55,380.68,175.23,381.02,174.91,381.36z"/>
			<path class="st129" d="M394.68,332.62c3.23,2.31-1.42,2.96-0.98,4.68c-1.23-0.63-1.01-1.78-1.04-2.85
				c-0.08-0.8,0.32-1.38,0.86-1.9C393.9,332.57,394.29,332.59,394.68,332.62z"/>
			<path class="st130" d="M72.78,425.26c0.35,0.35,0.7,0.7,1.05,1.05c-0.85,1.08-0.77,2.91-2.66,3.3
				C70.59,427.69,71.62,426.45,72.78,425.26z"/>
			<path class="st131" d="M327.64,358.2c-0.94,1.17,3.86,0.35,0.78,2.25c-1.2-0.05-2.4-0.1-3.61-0.15
				C325.22,358.89,326.23,358.27,327.64,358.2z"/>
			<path class="st132" d="M329.64,340.2c-0.06,1.47,0.51,3.09-1.06,4.18C324.86,341.95,328.79,341.47,329.64,340.2z"/>
			<path class="st133" d="M127.82,404.38c-0.02-1.36-0.04-2.73-0.05-4.09c2.25,0.91,2.04,2.86,2.02,4.73
				C129.13,404.81,128.47,404.6,127.82,404.38z"/>
			<path class="st34" d="M212.75,390.24c0.08-0.88-0.24-2.3,0.81-2.37c1.68-0.11,0.96,1.52,1.17,2.45
				C214.07,390.3,213.41,390.27,212.75,390.24z"/>
			<path class="st134" d="M429.6,340.38c0.04,1.02,0.09,2.04,0.13,3.06c-0.06,0.27-0.13,0.55-0.2,0.82
				C428.83,342.95,426.19,341.61,429.6,340.38z"/>
			<path class="st135" d="M115.81,331.47c0.32,0.95,0.63,1.89,0.95,2.84c-1.93-0.05-2-1.39-1.95-2.82
				C115.14,331.49,115.48,331.48,115.81,331.47z"/>
			<path class="st136" d="M252.85,391.24c-3.44-1.85-7.1-3.11-10.89-4.05c-0.31-1.06-3.53-1.54-1.58-2.5
				c3.69-1.83,2.54-4.73,2.6-7.25c0.19-7.95,0.02-15.92,0.1-23.88c0.04-3.87-0.25-7.5-3.65-10.1c-1.05-0.8-0.84-1.65,0.3-2.27
				c3.95,1.59,9.43,2.13,11.43,5.05c2.03,2.97,0.67,8.28,0.7,12.57c0.05,7.28,0,14.56,0.02,21.84c0.01,3.12-0.23,6.22,2.31,8.81
				C255.69,391.01,254.06,391.2,252.85,391.24z"/>
			<path class="st137" d="M275.68,399.21c-3.7,0.2-6.21-3.45-9.97-3.06c-2.21,0.09-2.86-2.35-5.02-2.37
				c5.78-5.82,2.6-12.42,3.07-18.48c0.71-4.2,0.67-8.19-2.84-11.77c3.26,0.93,6.52,1.85,9.78,2.78c0.67,0.33,1.35,0.66,2.02,0.99
				c1.07,7.06,0.14,14.16,0.48,21.24c0.09,1.95-0.48,3.97,0.46,5.85c-0.05,0.86-0.17,1.76,1.07,1.89
				C275.39,397.15,276.36,397.92,275.68,399.21z"/>
			<path class="st138" d="M270.75,353.31c3.9,2.25,1.63,5.82,1.9,8.84c-7.78-0.71-8.94-2.13-8.45-10.35
				C266.62,351.29,268.38,353.62,270.75,353.31z"/>
			<path class="st139" d="M341.64,386.29c-2.94,1.84-2.17,5.9-4.75,7.96c-1.47-1.02-0.17-2.74-1-3.92c-1.09-2.33-2.19-4.67-3.28-7
				c3.15-5.48,4.81-11.51,6.47-17.53c0.09-0.31,0.25-0.58,0.46-0.82c0.18-0.22,0.07-0.14-0.4,0.04c-1.1,0.42-2.2,0.31-3.24-0.26
				c-0.38-0.34-0.55-0.77-0.5-1.28c0.27-0.45,0.64-0.77,1.11-0.98c2.26-0.71,4.57-0.46,6.87-0.4c1.81,0.2,3.51,0.76,5.17,1.48
				c0.67,0.36,1.24,0.84,1.7,1.44c0.26,0.41,0.69,1.13,0.49,1.31c-5.44,5.18-5.1,13.11-9.08,18.97
				C341.67,385.63,341.66,385.96,341.64,386.29z"/>
			<path class="st74" d="M315.74,403.29c-2.37-6.08-1.79-12.26-0.44-18.41c0.44-2,1.76-3.59,4.18-3.55c3.14,0.06,4.83,1.74,5.3,4.77
				c-1.86,4.91-3.5,9.88-5.07,14.89C319.17,402.69,318.2,404.52,315.74,403.29z"/>
			<path class="st140" d="M335.67,363.39c0,0.31,0.01,0.61,0.01,0.92c-1.14,4.4-2.59,8.71-3.94,13.05
				c-0.43,1.38-0.79,3.36-3.12,2.98c-2.25-0.87-4.87-0.52-6.93-2.05c0.34-3.79,4.46-6.15,3.67-10.65c-0.23-1.34,1.62-4.35,4.54-4.43
				c0.83-0.59,1.66-1.19,2.48-1.78C333.51,362.02,334.96,362.08,335.67,363.39z"/>
			<path class="st141" d="M315.74,403.29c2.35-0.13,2.44-1.91,3.14-3.65c1.83-4.56,1.23-10.22,5.9-13.53
				c1.19,1.44,1.03,3.16,1.02,4.86c0.59,3.24,0.58,6.48,0.01,9.71c0.46,1.19-0.9,1.61-1.07,2.54c-0.46,2.39-0.84,4.99-4.03,5.02
				C317.55,408.26,316.24,406.1,315.74,403.29z"/>
			<path class="st142" d="M328.62,380.33c2.79-2.58,2.79-6.3,3.68-9.58c0.67-2.49,1.54-4.67,3.38-6.45c0,0,0,0,0,0
				c1.13,1.14,2.86-0.09,4,1c-0.84,6.6-1.58,13.24-7.06,18.01C331.28,382.33,329.95,381.33,328.62,380.33z"/>
			<path class="st53" d="M335.9,390.33c1.22,1.08,0.6,2.63,1,3.92c-0.75,2.28,0.71,4.92-1.14,7.02
				C335.8,397.62,335.85,393.97,335.9,390.33z"/>
			<path class="st143" d="M325.81,400.68c0-3.24-0.01-6.47-0.01-9.71C326.8,394.2,326.8,397.44,325.81,400.68z"/>
			<path class="st144" d="M214.74,347.15c2,0.39,3.99,0.78,5.99,1.17l-0.01,0c2.3-0.27,1.75,3.27,4.04,3.01
				c0.66-0.05,1.32-0.1,1.98-0.14c1.65-0.55,3.31-0.54,4.97-0.01c0.31,0.13,0.61,0.26,0.92,0.39c1.37,0.58,2.74,1.16,4.11,1.74
				c0.92,2.04,0.34,4.18,0.43,6.28c0.07,1.63-0.67,2.48-2.43,1.91l-0.41-0.27l-0.49,0.04c-1.54-0.93-2.88-1.86-3.49-3.82
				c-0.55-1.77-2.08-3.1-4.22-2.57c-1.83,0.45-2.7,1.95-2.7,3.74c-0.03,7.3-1.65,14.78,2.24,21.68c-2.38,0.16-4.74,0.15-6.9-1.09
				c-2.19-1.19-4.51-1.95-7.03-1.96c-0.77-0.52-1.32-1.77-0.66-1.99c4.43-1.45,3.28-5.09,3.41-8.18c0.12-2.65-0.16-5.32,0.07-7.95
				c0.41-4.79-0.19-9.2-3.8-12.75C212.29,345.62,213.42,346.87,214.74,347.15z"/>
			<path class="st20" d="M234.75,361.5c2.48,0.4,2.53-1.22,2.42-2.94c-0.12-1.75-0.28-3.5-0.42-5.25c1.9,2.29,0.96,4.98,0.82,7.45
				C237.47,362.59,236.05,362.54,234.75,361.5z"/>
			<path class="st137" d="M301.58,402.33c0.05,0.66,0.1,1.31,0.15,1.97c-3.13,2.28-6.56,1.9-10.03,1.16
				c-2.76-1.25-4.99-3.15-6.86-5.51c-2.53-6.96-0.67-14.19-1.31-21.26c-0.14-1.51,1.21-3.88-1.82-4.21
				c-0.81-0.82-4.26-1.46-0.36-2.68c2.14-0.67,3.22-2.05,3.17-3.9c-0.11-3.92,1.89-4.26,4.9-3.45c4.31,0.76,2.38,4.47,3.24,6.86
				c-0.81,3.53,1.97,2.74,3.77,3.13c1.57,1.27,4.24,0.54,5.23,2.87c-0.14,1.86-1.29,2.34-2.94,2.14c-3.78-0.29-4.94,1.38-4.72,5.16
				c0.28,4.9,0.51,9.87-0.47,14.76C295.04,403.51,299.29,400.26,301.58,402.33z"/>
			<path class="st37" d="M273.68,394.39c-1.79-6.82-0.4-13.77-0.81-20.64c-0.13-2.14-0.09-4.3-0.13-6.44
				c2.1,4.53,0.39,9.35,1.09,13.98C273.77,385.66,273.72,390.02,273.68,394.39z"/>
			<path class="st48" d="M293.52,399.36c-2.12-6.6-1.51-13.47-0.79-20.05c0.36-3.29,3.89,0,5.99,0.13c1.04,1.02,2.64,1.97,1.82,3.68
				C297.99,388.46,297.3,394.58,293.52,399.36z"/>
			<path class="st145" d="M402.44,342.78c1.01-0.63,1.79-1.75,3.21-1.56c0.59,0.14,0.68,0.72,1,1.11c0.26,0.35,0.52,0.7,0.79,1.05
				c2.21,3.45,2.12,7.15,1.18,10.94c0,0,0.01-0.02,0.01-0.02c-1.05,1.26-2.1,2.53-3.16,3.79c-0.43,0.8-1.15,0.87-1.94,0.78
				c-3.06-4.8-2.9-10.1-2.42-15.46C401.47,343.01,401.91,342.81,402.44,342.78z"/>
			<path class="st146" d="M406.64,342.33c-0.33-0.37-0.66-0.74-1-1.1c-0.34-0.34-0.68-0.68-1.02-1.02c3.05-2.58-0.19-5.2,0.06-7.8
				c1.97-0.04,4.22-0.46,4.81,2.23C410.17,337.74,409.67,340.54,406.64,342.33z"/>
			<path class="st146" d="M408.61,354.31c0.55-3.75-0.14-7.36-1.18-10.94C410.73,346.71,410.26,350.44,408.61,354.31z"/>
			<path class="st147" d="M120.84,400.11c-1.02,0.13-2.04,0.25-3.07,0.38c-0.32-0.4-0.65-0.81-0.97-1.21
				c-2.67-1.44-3.64-3.78-3.28-6.64c0.43-3.42,0.38-6.9,1.29-10.25c0.7-0.67,1.39-1.35,2.09-2.02c0.62-0.04,1.23-0.09,1.85-0.13
				c0.15,0.06,0.36,0.08,0.45,0.2C121.44,383.35,122.53,396.59,120.84,400.11z"/>
			<path class="st148" d="M114.81,382.38c0.64,2.53,1.35,4.93,0.31,7.67c-1.21,3.22-0.17,6.38,1.68,9.22
				c-0.95-0.05-1.89-0.1-2.84-0.15c0,0-0.01,0.1-0.01,0.1c-0.15-2.02-2.37-2.54-3.05-4.19c0.07-0.27,0.03-0.52-0.14-0.75
				c0.02-2,0.05-3.99,0.07-5.99C112.24,386.38,112.81,383.91,114.81,382.38z"/>
			<path class="st149" d="M403.79,358.42c0.56-0.11,1.12-0.22,1.67-0.34c-0.2,1.9-2.23,2.57-2.84,4.19c-2,2.65-4.66,4.81-6.01,7.96
				c-0.32,0.03-0.64,0.06-0.96,0.08c-2.84-0.56-1.61-2.43-1.18-3.92c0.43-1.5,2.06-2.54,1.77-4.36c0.04-0.46,0.23-0.85,0.55-1.18
				C398.95,359.54,401.39,359.02,403.79,358.42z"/>
			<path class="st16" d="M359.42,408.17c-2.94,0.73-5.63,2.36-8.74,2.49c-3.01-0.03-6.04,0.59-9.01-0.35
				c0.33-2.74-2.02-6.19,2.1-7.92c0,0-0.04,0.01-0.04,0.01c1.06-0.6,1.76,0.07,2.48,0.68c1.51,2.2,3.49,3.39,6.25,2.86
				c2.58-1.01,4.78-2.17,2.35-5.36c-1.78-0.91-3.73-1.37-5.59-2.07c-2.05-0.73-3.31-2.34-4.55-3.99c-2.48-2.67-2.24-5.95-2.06-9.21
				c0.59-4.71,4.39-6.25,7.92-8.08c2.41-0.76,4.77-1.73,7.28-2.18c1.9-0.12,3.68-1.02,5.62-0.83c2.97,0.4,3.57,2.48,3.46,4.99
				c-0.11,2.43-1.12,4.08-3.85,4.04c-1.09-0.09-2.01-0.59-2.86-1.24c-0.38-0.25-0.76-0.53-1.13-0.79c-1.39-0.92-2.77-0.75-4.14,0.09
				c-3.03,2.2-3.16,4.27,0.26,6.2c2.34,0.98,4.9,1.21,7.27,2.08c1.53,0.85,2.85,1.88,3.11,3.77
				C367.33,399.87,364.36,404.43,359.42,408.17z"/>
			<path class="st150" d="M361.68,382.24c2.76,0.55,4.38-0.11,4.45-3.39c0.06-2.61-0.5-4.12-3.44-3.7c0.15-1.86,1.52-1.65,2.77-1.63
				c0.88-0.36,2.1,3.68,2.83-0.34c0.36-1.98,1.88-3.7,2.88-5.78c-1.63-0.04-3.21,0.28-4.7-0.33c-0.45-0.22-0.79-0.56-1.03-1
				c0.08-0.51,0.31-0.93,0.71-1.26c1.62-0.9,3.41-0.72,5.16-0.77c0.99-0.01,1.99,0.02,2.98,0.1c0.5,0.04,0.98,0.14,1.46,0.29
				c0.47,0.18,0.86,0.47,1.21,0.83c0.84,2.37-1.3,3.39-2.25,4.96c0.48,3.99-2.18,7.18-3.63,10.31c-1.96,4.22-1.02,9.77-5.53,12.81
				c-1.06-0.96-2.12-1.91-3.19-2.87C363.56,387.61,362.7,384.92,361.68,382.24z"/>
			<path class="st151" d="M374.7,370.22c0.63-1.61,1.26-3.22,1.89-4.83c0.69-0.61,1.39-0.61,2.1-0.04c0,0.32,0,0.64,0,0.96
				C377.42,367.67,377.09,370,374.7,370.22z"/>
			<path class="st152" d="M378.69,365.36c-0.7,0.01-1.4,0.02-2.1,0.03c-0.3-0.08-0.59-0.14-0.9-0.18c1.17-0.99,1.2-2.07,0.72-4.54
				c-1-5.14-2.14-10.31,0.11-15.43c0.77-0.61,1.54-1.21,2.3-1.82c0.6-0.05,1.19-0.1,1.79-0.16c2.95-0.12,4.08,1.61,4.31,4.26
				c0.39,4.42,2.04,8.69,1.58,13.19c-0.18,1.76,1.3,1.61,2.07,2.3c0.25,0.28,0.35,0.57,0.31,0.87c-0.04,0.31-0.1,0.47-0.17,0.47
				c-2.31,1.21-5.06-1.28-7.25,0.87C380.55,365.26,379.62,365.31,378.69,365.36z"/>
			<path class="st92" d="M110.9,395.04c1.98,0.69,3.17,1.96,3.05,4.19C112.63,398.06,110.85,397.21,110.9,395.04z"/>
			<path class="st16" d="M167.77,324.21c0.51,0.1,1.03,0.19,1.54,0.29c1.88,2.3,1.14,5.16,1.34,7.72c0.2,2.62-2.63,3.73-4.89,2.24
				c-1.13-0.75-1.53-2.08-2.33-3.08c-0.96-1.55-2.44-1.89-4.13-1.75c-1.56,0.03-2.9,0.59-4.05,1.66c-2.19,2.17-3.03,4.97-3.75,7.84
				c-0.92,6.15-1.16,12.29,0.01,18.42c2.11,5.73,3.51,6.69,8.65,5.93c2.39-1.06,4.11-2.77,5.12-5.19c0.87-1.15,1.95-1.83,3.45-1.61
				c3.03,3.17,3.27,6.23,0.88,11.02c-1.75,1.06-3.72,1.43-5.68,1.85c-2.74,0.14-5.37,1.15-8.14,1.1c-2.17-0.03-4.35,0.12-6.5-0.37
				c-3.07-1.32-7.14-1.35-7.69-5.93c-2.87-7.91-2.32-15.95-0.93-24.02c1.66-3.01,3.32-6.01,4.98-9.02c0.59-0.66,1.17-1.32,1.76-1.99
				c4.16-4.05,9.35-5.16,14.9-5.2C164.13,324.1,165.95,324.17,167.77,324.21z"/>
			<path class="st153" d="M141.6,364.35c1.88,2.44,4.58,3.67,7.26,4.93c-1.48,1.58-2.12,3.83-4.08,5.03c-2,0-4,0-6,0
				c2.42-1.27,3.82-2.8,2.27-5.79C140.43,367.28,140.38,365.6,141.6,364.35z"/>
			<path class="st144" d="M186.76,372.48c-1.99-0.1-3.98-0.2-5.96-0.29c-2.8-1.64-4.73-4.03-5.99-6.99
				c-1.18-1.3-1.13-2.58,0.08-3.83c2.26-2.08,4.02-4.77,7.01-6c0.91-1.33,2.37-1.63,3.78-2.02c0.96-0.21,1.95-0.16,2.92-0.26
				c1.82-0.19,4.32,0.68,4.7-2.2c0.35-2.63-0.71-4.91-3.15-6.13c-2.36-1.18-3.61,0.49-4.65,2.3c-0.92,1.63-1.77,3.37-4.17,2.71
				c-4.15-1.07-5.24-3.54-3.34-7.35c2.03-0.64,4.07-1.29,6.1-1.93c2.56-0.11,5.12-0.22,7.68-0.32c0.66,0.09,1.31,0.18,1.97,0.27
				c1.67,0.64,3.35,1.28,5.02,1.91c1.01,0.97,2.02,1.94,3.03,2.9c2.94,6.99,1.44,14.36,1.83,21.57c0.14,2.61-0.28,5.48,3.15,6.49
				c-1.85,4.5-4.62,0.52-6.93,0.76c-2.08-0.88-5.08-0.72-4.42-4.52c0.11-0.63-1.27-0.26-1.75,0.49
				C191.36,370.85,189.06,371.66,186.76,372.48z"/>
			<path class="st154" d="M163.43,329.35c2.5,0.92,2.05,6.64,5.55,4.62c2.58-1.49,1.03-5.61,0.77-8.59
				c-0.03-0.3-0.29-0.58-0.44-0.87c0.49-0.06,0.97-0.12,1.46-0.17c0.06,1.7,0.12,3.39,0.18,5.09c0.47,1.91,1.23,3.8,0.3,5.78
				c-0.33,0.45-0.74,0.8-1.22,1.07c-2.52,0.67-1.83,2.31-1.58,4.21c0.75,5.6,1.91,11.28-0.68,16.77c-1.08,0.34-1.71,1.13-2.17,2.1
				c-2.53,0.68-3.19,0.41-3.16-2.87c0.06-6.29-1.24-12.46-1.17-18.73c0.02-2.14-0.31-4.29-0.16-6.42
				C161.2,330.03,161.43,328.55,163.43,329.35z"/>
			<path class="st155" d="M170.76,335.33c0.06-1.97,0.12-3.94,0.19-5.92c1.72,1.66,1.92,3.78,1.81,5.99
				c-0.36,7.81,1.7,15.52,1.02,23.34c-0.09,1.03,0.17,1.99,1.1,2.62c-0.03,1.28-0.05,2.55-0.08,3.83c0.17,3.41-0.57,6.86,0.5,10.23
				c0.42,1.33-0.46,1.72-1.54,1.87c-1.92-1.2-2.32-3.21-2.76-5.2c-0.12-0.78-0.1-1.56,0.02-2.34c-0.6-7.85,2.11-15.85-1.15-23.56
				c-0.52-1.95-0.55-3.93-0.5-5.92C169.42,338.5,169.45,336.73,170.76,335.33z"/>
			<path class="st156" d="M182.03,349.22c2.18,0.02,1.42-2.37,2.61-3.17c2.87,2.47,3.09,5.29,1.12,8.41c-1.12,1-2.51,0.92-3.87,0.92
				c-3.61-0.92-1.61-3.82-2.06-5.85C180.45,348.59,181.23,348.85,182.03,349.22z"/>
			<path class="st157" d="M182.03,349.22c-0.73,0.1-1.47,0.2-2.2,0.3c-5.18-0.63-2.3-4.69-3.06-7.2c0.4,0.03,0.81,0.06,1.21,0.1
				C177.22,345.93,177.27,348.98,182.03,349.22z"/>
			<path class="st158" d="M388.74,364.34c0.03-0.31,0.07-0.61,0.14-0.92c1.05-1.41,2.63-1.24,4.11-1.41
				c1.21-0.03,2.45-0.37,3.61,0.28c2.24,0.27,1.18,1.12,0.48,2.15c-1.19,1.75-3.56,3.3-1.41,5.88c-1.33,2.01-2.67,4.01-4,6.02
				c-1.33,1.44-2.75,2.84-3.03,4.93c-1.92,0.09-2.24,1.77-3,3.02c-1.43-1.12-0.88-2.25-0.04-3.42c3.07-4.23,3.32-9.52,5.34-14.15
				C392.03,364.19,390.24,364.41,388.74,364.34z"/>
			<path class="st159" d="M144.78,374.3c1.4-1.64,0.1-5.47,4.08-5.03c2.31,0.07,4.62,0.15,6.92,0.22c0.22,0.46,0.17,0.87-0.19,1.24
				c-2.68,0.83-3.13,3.9-5.29,5.26c-1.3,0.41-2.52,0.39-3.53-0.7C146.34,374.5,145.6,374.33,144.78,374.3z"/>
			<path class="st160" d="M146.78,375.3c1.33,0.04,2.66,0.07,3.99,0.11c1.24-0.09,1.39,0.4,0.7,1.33c-2.29,1.35-4.82,0.72-7.25,0.91
				c-0.55,0.02-1.1,0.02-1.65,0.01c-1.39-0.01-2.79-0.01-4.18,0c-1.97-0.14-4.1,0.33-5.66-1.43c0.06-0.28,0.14-0.54,0.24-0.81
				C137.57,375.39,142.17,375.34,146.78,375.3z"/>
			<path class="st161" d="M125.79,375.3c-1.1-13.3-3.01-26.57-2-39.97c1.59,2.77,1.79,5.96,1.89,8.94
				c0.29,9.01,0.81,17.99,2.05,26.92C127.97,372.94,127.61,374.49,125.79,375.3z"/>
			<path class="st162" d="M132.73,376.24c2.01,0.04,4.01,0.07,6.01,0.11c0.24,0.28,0.32,0.56,0.25,0.84
				c-0.08,0.28-0.15,0.42-0.23,0.43c-0.59,0.46-1.28,0.68-2.01,0.81c-1.44,0.2-2.88,0.47-4.35,0.39c-1.67-0.32-3.55-0.03-4.8-1.6
				c0.09-0.29,0.19-0.57,0.29-0.85C129.5,376.32,131.11,376.28,132.73,376.24z"/>
			<path class="st163" d="M116.8,334.33c1.77,2.93,1.82,6.19,2.04,9.49c0.71,10.85,1.07,21.74,2.95,32.48
				c-0.11,1.97,1.48,0.56,2.12,1.06c0.22,0.43,0.21,0.83-0.08,1.23c-0.9,0.72-1.99,1.01-3.08,1.3c-0.7,0.1-1.33-0.02-1.85-0.54
				c-0.83-6.92-0.24-13.86-1.58-20.87c-1.4-7.36-0.85-15.12-1.77-22.67C115.5,335.37,116.36,334.83,116.8,334.33z"/>
			<path class="st164" d="M118.9,379.35c0.62-0.04,1.24-0.07,1.86-0.11c2.87,0.26,2.93,2.59,3.55,4.63
				c1.55,5.05,0.02,10.6,2.59,15.46c-0.08,0.3-0.18,0.58-0.31,0.86c-1.92-0.03-3.84-0.06-5.76-0.09
				c-0.87-6.61-0.39-13.36-2.09-19.88C118.79,379.94,118.84,379.65,118.9,379.35z"/>
			<path class="st165" d="M123.72,378.2c0.05-0.28,0.11-0.57,0.18-0.84c1.23-0.05,2.46-0.1,3.69-0.15c1.72,0.4,3.74-0.61,5.19,1.09
				c-0.05,0.23-0.09,0.45-0.13,0.68c0.03,5.63-0.58,11.33,1.96,16.67c0.11,0.2,0.21,0.41,0.32,0.62c-1.4,2.72-3.82,2.16-6.14,1.91
				C125.88,391.83,124.53,385.08,123.72,378.2z"/>
			<path class="st85" d="M224.77,351.34c-0.28,0.4-0.46,0.97-0.84,1.16c-1.04,0.53-1.14-0.38-0.97-0.95
				c0.65-2.1-1.23-2.34-2.23-3.22c1,0,2.01,0,3.01-0.01C223.8,349.42,223.6,350.61,224.77,351.34z"/>
			<path class="st101" d="M231.72,351.18c-1.66,0-3.31,0.01-4.97,0.01C228.4,349.87,230.06,349.89,231.72,351.18z"/>
			<path class="st65" d="M350.69,378.14c-3.27,1.74-6.28,3.76-8.08,7.16c-0.31,0-0.62,0-0.93,0c0.1-6.38,4.68-11.51,5.03-17.76
				c0.14-2.44,4.52,1.56,2.97-2.33c0.66-1.66,2.09-1.89,3.61-1.97c0.72,0,1.42,0.14,2.08,0.42c0.42,0.2,0.81,0.46,1.17,0.74
				c0.78,0.8,2.11,1.05,2.36,2.38C354.23,369.17,354.01,374.77,350.69,378.14z"/>
			<path class="st98" d="M344.66,394.51c2.21,0.02,2.72,2.97,4.98,2.89c0.37,3.09,0,5.67-3.93,5.87c-0.66-0.29-1.33-0.58-1.99-0.87
				C344.33,399.8,344.98,397.21,344.66,394.51z"/>
			<path class="st166" d="M335.67,363.39c-1.47-0.04-2.24-1.24-3.29-1.96c1.45-0.13,3.11,0.14,2.42-2.39
				c-0.59-2.18-0.76-4.47-1.12-6.72c0.33-0.01,0.67-0.01,1-0.02c0.33,0.02,0.66,0.03,0.99,0.04c1.07,1.43,2.62,0.86,4.01,0.97
				c1,0.01,2,0.01,2.99,0.02c2.32,0.02,4.65,0.04,6.97,0.05c-0.53,3.02-2.66,1.23-4.14,1.38c-0.55-0.38-0.04,1.16-0.02,0.5
				c3.92,1.36,2.27,4.19,1.78,6.72c-0.81,1.5-2.58,0.31-3.58,1.29C341.02,363.31,338.35,363.35,335.67,363.39z"/>
			<path class="st167" d="M355.46,364.39c-0.6-0.02-1.19-0.03-1.79-0.05c-0.75-3.66-1.37-7.34-1.99-11.01
				c0.36-0.32,0.72-0.63,1.09-0.95c0.63-0.06,1.26-0.11,1.89-0.17c0.6-0.26,1.16-0.2,1.68,0.18c2.41,2.65,2.75,5.93,2.49,9.25
				C358.7,363.45,358.2,365.47,355.46,364.39z"/>
			<path class="st168" d="M346.67,362.31c-0.45-2.56,1.33-5.74-2.09-7.51c1.51-1.16,3.75,0.35,5.06-1.41c0.34,0,0.69-0.01,1.03-0.01
				c2.82,6.24,2.58,8.29-1.21,10.5C348.41,363.58,347.33,363.31,346.67,362.31z"/>
			<path class="st169" d="M348.68,363.31c2.22-0.25,3.44-1.4,2.6-3.63c-0.79-2.1-0.5-4.2-0.6-6.31c0.33-0.01,0.67-0.03,1-0.04
				c2.98,3.25,3.08,7.03,1.99,11.01c-1.33,0.29-2.66,0.58-3.99,0.87c-0.33-0.32-0.66-0.63-0.99-0.95c-0.25-0.21-0.34-0.42-0.26-0.63
				C348.51,363.42,348.59,363.31,348.68,363.31z"/>
			<path class="st170" d="M393.58,363.13c-1.57,0.1-3.14,0.2-4.71,0.3c-1.77-0.39-4.26,1.23-3.56-3.29
				c0.71-4.62-1.05-9.63-1.81-14.46c-0.24-1.54-2.29-1.17-2.89-2.42c1.02-0.64,2.03-1.29,3.05-1.93c0.33-0.15,0.66-0.3,0.98-0.44
				c1.13,0.71,2.53,0.57,3.72,1.15c1.39,0.7,2.16,1.85,2.4,3.37c0.2,3.1,0.14,6.21,1.48,9.15c0.62,1.36,0.39,2.93,0.19,4.38
				C392.21,360.54,391.22,362.27,393.58,363.13z"/>
			<path class="st171" d="M392.67,339.47c0.29-0.1,0.59-0.2,0.88-0.31c1.36,0.27,2.89,0.1,3.84,1.46
				c2.54,5.21,1.68,10.95,2.49,16.42c0.38,2.61-1.49,3.74-3.78,4.24c-2.77,0.56-2.57-1.69-2.41-3.06c0.52-4.45-1.45-8.3-2.51-12.38
				c-0.52-1.54-0.1-3.02,0.27-4.51C391.67,340.59,392.08,339.97,392.67,339.47z"/>
			<path class="st172" d="M392.67,339.47c-0.02,0.64-0.05,1.29-0.07,1.93c-1.35,1.03-1.29,2.67-1.79,4.07
				c-0.42,0.24-0.81,0.2-1.16-0.15c0.17-1.56-1.39-1.96-2-3c0.82-2.04-1.52-1.05-1.88-1.96
				C387.93,338.97,390.2,338.47,392.67,339.47z"/>
			<path class="st173" d="M396.65,340.33c-1.17-0.02-2.41,0.12-3.1-1.17c1.53-1.56,3.03-1.19,4.51,0.06
				c0.1,0.46,0.03,0.88-0.25,1.26C397.38,340.74,397,340.67,396.65,340.33z"/>
			<path class="st174" d="M385.77,340.36c1.31,0,2.97-0.34,1.88,1.96c-1.16-0.14-3.2,1.53-3-1.45
				C385.02,340.71,385.4,340.54,385.77,340.36z"/>
			<path class="st129" d="M397.97,340.17c-0.04-0.32-0.01-0.64,0.08-0.95c0.22-0.32,0.43-0.64,0.65-0.95
				c1.36,0.19,2.95-0.47,3.92,1.11c-0.81,0.81-1.79,1.27-2.91,1.48C399.02,340.93,398.39,340.82,397.97,340.17z"/>
			<path class="st175" d="M170.76,340.33c0,2,0,4,0,6c1.36,2.8,0.94,5.8,0.99,8.75c0.08,5.08-0.54,10.16,0.01,15.24
				c0,0.67,0,1.33,0,2c0.72,1.33,0.73,2.67,0,4c-1.32,0-2.65,0.01-3.97,0.01c-4.21-2.46-3.81-6.2,0.97-8.93
				c2.33-4.31,1.93-8.38-0.99-10.15c-0.74-6.33,1.4-12.8-1.68-19.1c-1.43-2.92,1.75-2.71,3.67-2.81
				C170.96,336.83,169.52,338.84,170.76,340.33z"/>
			<path class="st176" d="M168.77,389.25c-0.34,0.02-0.67,0.04-1.01,0.07c-2.7-0.14-5.25-1.56-8.03-0.94c0,0,0.05-0.16,0.05-0.16
				c-1.5-0.64-1.34-1.98-1.45-3.27c-0.21-2.42-0.51-4.8-2.97-6.23c-1.14-0.66-0.9-1.55,0.2-2.19c1.8-0.73,3.69-0.51,5.56-0.6
				c2.31,0.01,4.72-0.37,6.53,1.64c0.01,0.25,0.06,0.5,0.13,0.75C165.45,382.19,169.11,385.54,168.77,389.25z"/>
			<path class="st177" d="M167.65,377.55c-2.19-0.12-4.38-0.25-6.56-0.37c-0.5-0.21-0.86-0.56-1.08-1.05
				c-0.42-1.27-0.38-2.5,0.37-3.65c0-1.03,3.07,1.5,1.63-1.47c-0.51-1.04,0.59-2.08,1.75-2.58c1.59-0.7,3.22-1.23,5-1.05
				c-2.18,2.77-4.57,5.53-0.97,8.93C167.74,376.73,167.7,377.14,167.65,377.55z"/>
			<path class="st127" d="M171.76,376.31c0-1.33,0-2.67,0-4c1.59,1.29,0.74,3.56,1.99,4.99
				C172.94,377.28,172.19,377.11,171.76,376.31z"/>
			<path class="st178" d="M376.53,345.23c0.35,5.96-0.17,11.98,1.8,17.81c0.77,2.27-2.46,0.55-2.63,2.17
				c-0.35,0.03-0.7,0.07-1.05,0.1c-1.23-0.81-2.79-1.48-2.92-3.12c-0.34-4.33-1.4-8.61-1-13c0.28,0.07,0.56,0.1,0.84,0.09
				c1.49-1.15,3.03-2.25,4.11-3.84C375.95,345.31,376.24,345.24,376.53,345.23z"/>
			<path class="st179" d="M375.69,345.43c-0.44,2.27-1.16,4.25-4.11,3.84c-0.17-2.31,2.07-2.65,3.2-3.89
				C375.08,345.37,375.38,345.38,375.69,345.43z"/>
			<path class="st165" d="M371.65,365.21c-2.01,0.1-4.03,0.2-6.04,0.3c-0.25,0.02-0.5,0.05-0.75,0.07
				c-1.31,0.09-2.65,0.09-3.84-0.46c-2.32-1.08-1.56-2.01,0.26-2.77c1.82-0.17,2.56-0.99,2.12-2.93c-0.62-2.71-1.19-5.4-2.98-7.63
				c0.11-1.28,1.61-0.66,2.04-1.5c0.4-0.33,0.81-0.65,1.21-0.98c0.68,0.01,1.35,0.01,2.03,0.02c1.91-1.01,3.13-0.58,3.57,1.64
				C370.19,355.7,370.03,360.61,371.65,365.21z"/>
			<path class="st180" d="M371.65,365.21c-3.07-2.51-2.93-5.92-3.16-9.49c-0.14-2.15,1.68-5.89-2.8-6.4
				c1.44-1.38,3.27-1.05,5.01-1.13c0.04,0.33,0.05,0.66,0.04,0.99c2.11,2.97,2.17,6.37,1.89,9.77c-0.21,2.47,0.57,4.49,2.03,6.35
				C373.65,365.28,372.65,365.25,371.65,365.21z"/>
			<path class="st181" d="M399.46,339.98c0.86-1.21,2.04-0.74,3.16-0.6c-0.06,1.13-0.12,2.26-0.18,3.4
				c-0.18,0.29-0.44,0.46-0.77,0.54C400.04,342.8,398.88,341.96,399.46,339.98z"/>
			<path class="st152" d="M145.7,393.25c-0.31-0.04-0.63-0.09-0.93-0.17c-3.66-4.89-2.82-10.2-1.48-15.56
				c7.2-1.77,8.65-0.84,9.33,6.15c0.15,1.56,1.33,3.12,0.12,4.72c-3.09-0.57-2.59,3.62-5.08,3.84
				C147,392.57,146.35,392.91,145.7,393.25z"/>
			<path class="st170" d="M152.74,388.39c-0.89-2.48-2.94-4.63-1.32-7.71c0.94-1.78-0.83-2.73-2.27-3.03
				c-1.74-0.36-3.58-0.25-5.37-0.35c-0.25-0.22-0.33-0.44-0.25-0.65c0.08-0.22,0.16-0.33,0.25-0.33c2.72-0.03,5.45-0.07,8.17-0.1
				c0.49-0.51,1.09-0.54,1.73-0.36c0.6,0.31,0.98,0.78,1.1,1.45c5.62,1.82,4.53,6.73,5.01,10.91c-2.4-0.08-4.53,1.58-6.99,1.05
				C152.75,388.97,152.74,388.68,152.74,388.39z"/>
			<path class="st182" d="M362.45,350.29c-0.58,0.38-1.15,0.76-1.73,1.15c-0.39,0.4-0.85,0.68-1.39,0.84
				c-1.71,0.42-3.23-0.07-4.67-0.97c0.33-0.33,0.67-0.66,1-0.99c1.3-0.61,2.42-1.77,1.87-3.05c-1.67-3.93,0.16-7.66,0.26-11.47
				c0.25,0.07,0.5,0.16,0.74,0.26c1.49,3.44,4.15,6.56,2.23,10.83C360.24,348.05,360.31,349.94,362.45,350.29z"/>
			<path class="st102" d="M354.67,351.31c1.72,0.03,3.43,0.06,5.15,0.09c0.22,0.56,0.09,1.01-0.39,1.36
				c-1.33,0.72-2.55,0.35-3.73-0.38c-0.34-0.06-0.69-0.11-1.03-0.17C354.67,351.91,354.67,351.61,354.67,351.31z"/>
			<path class="st183" d="M341.67,410.31c3,0.12,6,0.24,9.01,0.35c0,0.2-0.01,0.4-0.01,0.6
				C347.66,410.99,344.49,412.29,341.67,410.31z"/>
			<path class="st184" d="M123.72,378.2c2.97,1.86,1.81,5.03,2.35,7.62c0.85,4.13,3.53,7.86,2.72,12.35
				c-0.34,0.37-0.68,0.73-1.02,1.1c0,0-0.43,0.06-0.43,0.06s-0.43,0-0.43,0c-2.96-0.68-2.92-2.88-2.98-5.32
				c-0.14-5.09,0.48-10.41-3.16-14.77C121.51,378.22,122.64,378.28,123.72,378.2z"/>
			<path class="st185" d="M137.85,396.23c-0.69,0.04-1.38,0.07-2.07,0.11c-0.28-0.04-0.57-0.06-0.85-0.07c0,0-0.37,0.08-0.37,0.08
				c-0.39-1-0.03-1.9,0.34-2.81c0.21-0.46,0.47-0.88,0.77-1.29c0.55-0.59,1.31-1.39,1.99-0.84
				C139.41,392.85,138.37,394.59,137.85,396.23z"/>
			<path class="st186" d="M143.78,376.32c0,0.33,0,0.66,0.01,0.98c0.03,5.28-0.37,10.59,0.98,15.78c-0.68,0.35-1.36,0.7-2.04,1.05
				c-2.55-2.9-4.23-12.9-2.76-15.92c0.6-1.23,1.88-1.24,2.79-1.9C143.1,376.32,143.44,376.32,143.78,376.32z"/>
			<path class="st187" d="M142.76,376.32c-1.18,1.17-2.11,2.33-2.03,4.25c0.21,4.6,0.89,9.11,1.99,13.57
				c-0.32,0.17-0.64,0.35-0.95,0.52c-0.66-0.13-1.33-0.25-1.99-0.38c-3.35-5.48-3.29-11.17-1.01-16.99c0-0.32-0.01-0.63-0.03-0.95
				C140.08,376.34,141.42,376.33,142.76,376.32z"/>
			<path class="st188" d="M138.77,377.29c0.33,5.66-0.8,11.41,1.01,16.99c-0.64,0.65-1.29,1.3-1.93,1.94
				c-0.4-1.33,0.42-2.85-0.62-4.09c-0.47,0.41-0.93,0.83-1.4,1.24c-1.06-5.44-1.32-10.83,0.95-16.07
				C137.44,377.3,138.11,377.3,138.77,377.29z"/>
			<path class="st189" d="M348.68,363.31c0,0.32,0,0.64,0.01,0.95c-1.8,0.36-3.36-0.49-4.99-0.99c0.73-1.14,1.9-0.93,2.98-0.97
				C347.5,362.33,348.25,362.51,348.68,363.31z"/>
			<path class="st140" d="M339.68,365.31c-1.38-0.15-2.95,0.46-4-1C336.97,364.81,338.8,363.15,339.68,365.31z"/>
			<path class="st190" d="M399.46,339.98c0.74,1.11,1.47,2.23,2.21,3.34c0.69,5.04,0.58,10.19,2.12,15.11
				c-1.79,2.23-4.29,2.81-6.97,2.98c-0.42,0.41-0.81,0.36-1.17-0.09c2.72-1.1,3.34-3.21,2.97-5.9c-0.7-5.02-1.32-10.05-1.98-15.08
				c0.44-0.05,0.88-0.1,1.33-0.15C398.47,340.11,398.97,340.04,399.46,339.98z"/>
			<path class="st191" d="M395.65,361.31c0.39,0.03,0.78,0.06,1.17,0.09c-0.09,0.29-0.17,0.59-0.23,0.9
				c-0.97,0.39-1.81,1.25-3.01,0.84c-1.96-0.6-2.99-1.55-2.52-3.94c0.93-4.72-2.55-9.07-1.41-13.87c0.37-0.02,0.73-0.04,1.1-0.07
				c0.27-0.43,0.52-0.41,0.77,0.01c2.69,3.16,3.74,6.93,3.58,10.95C395.04,358,394,359.75,395.65,361.31z"/>
			<path class="st192" d="M350.69,378.14c0.47-1.56,1.06-3.1,1.4-4.69c0.78-3.7,3.09-5.9,6.55-7.08c2.33-1.6,4.67-1.43,7.01-0.05
				l0,0c0.23,0.27,0.32,0.54,0.25,0.82c-0.06,0.28-0.13,0.42-0.2,0.42c-2.07,1.07-3.74,2.46-4.44,4.86
				c-0.53,1.81-1.8,3.05-3.59,3.73C355.35,376.81,353.02,377.48,350.69,378.14z"/>
			<path class="st193" d="M345.72,403.27c2.69-1.03,2.82-3.78,3.93-5.87c2,0.7,4,1.4,6.01,2.09c1.65,3.58-0.82,5.55-2.97,7.65
				C349.07,408.17,346.57,407.2,345.72,403.27z"/>
			<path class="st194" d="M354.45,388.38c-4.45-2.53-4.37-5.29,0.25-8.06c1.68-0.83,3.39-0.63,5.11-0.12l-0.04-0.05
				C361.18,386.37,359.7,388.66,354.45,388.38z"/>
			<path class="st195" d="M354.45,388.38c5.86-0.1,4.06-5.15,5.32-8.23c1.14,0.24,1.71,1,1.91,2.09c3.98,2.44,3.93,5.21,0.68,8.24
				C359.56,390.38,356.94,389.63,354.45,388.38z"/>
			<path class="st196" d="M357.68,376.15c1.21-1.71,2.6-3.33,3.02-5.48c0.54-2.76,2.31-3.71,4.96-3.36
				c2.64,2.32,2.02,4.61-0.06,6.89c-1.04,0.12-2.17-0.07-2.91,0.96C361.02,375.48,359.35,375.81,357.68,376.15z"/>
			<path class="st197" d="M352.68,407.14c0.66-2.68,3.05-4.68,2.97-7.65C358.51,403.25,357.75,405.21,352.68,407.14z"/>
			<path class="st195" d="M359.81,380.19c-1.7,0.04-3.41,0.08-5.11,0.12C356.38,379.16,358.08,378.85,359.81,380.19z"/>
			<path class="st198" d="M365.6,374.19c0.25-2.29,1.22-4.58,0.06-6.89c0-0.33,0-0.66-0.01-0.99c2.29,0,4.58,0,6.94,0
				c-1.06,4.39-4.45,7.62-4.51,12.82C365.96,377.54,367.4,375.03,365.6,374.19z"/>
			<path class="st198" d="M365.65,366.32c-2.34,0.02-4.67,0.03-7.01,0.05c-1.08-0.14-2.35,0.15-2.86-1.27
				c3.31-0.94,6.6-0.3,9.9,0.08c0,0-0.07,0.34-0.07,0.34C365.64,365.78,365.65,366.05,365.65,366.32z"/>
			<path class="st199" d="M160.82,364.38c-5.85,1.67-8.87-0.07-10.13-5.84c-0.01-6.81-0.93-13.61,0.01-20.42
				c0.06-3.27,1.58-5.77,4.08-7.75c2.9,4.27,2.06,9.21,2.3,13.9c0.25,4.94,0.18,9.89,0.95,14.81c0.3,1.88,0.62,3.56,2.36,4.61
				C160.54,363.92,160.68,364.15,160.82,364.38z"/>
			<path class="st200" d="M163.43,329.35c-0.66,0.17-1.4,0.43-1.33,1.21c0.83,9.02,1.78,18.03,1.66,27.1
				c-0.02,1.34,0.03,2.44,1.84,1.68c-0.09,3.1-2.55,3.96-4.78,5.04c0,0-0.16-0.22-0.16-0.22c-1.64-1.54-2.75-3.49-2.69-5.66
				c0.25-8.56-0.62-17.04-1.42-25.53c-0.18-1.91,0.38-3.59,2.21-4.61C160.51,327.78,162.16,327.65,163.43,329.35z"/>
			<path class="st201" d="M158.77,328.37c-2.15,6.36,0.53,12.67,0.39,19.03c-0.07,3.03,1.04,6.13-0.02,9.21
				c-0.97,2.84,2.26,4.79,1.54,7.55c-2.2,0.29-3.79,0.16-3.94-2.83c-0.52-10.33-1.27-20.64-1.94-30.96
				C155.74,328.97,157.06,328.28,158.77,328.37z"/>
			<path class="st202" d="M163.75,368.44c-0.69,1.15-0.87,2.41-1.03,3.75c-0.34,2.86-1.29-0.09-1.95,0.12
				c-0.61,0.56-1.03,1.27-1.53,1.92c-1.19,1.59-2.85,2.67-4.65,1.55c-2.18-1.36,0.4-2.78,0.42-4.23c0.01-0.46,0.42-0.87,0.76-1.23
				c0.01-0.27,0.01-0.54,0.01-0.81C158.44,369.14,161.1,368.79,163.75,368.44z"/>
			<path class="st76" d="M150.7,338.12c-0.05,6.81,1.81,13.61-0.01,20.42C148.6,351.73,148.78,344.93,150.7,338.12z"/>
			<path class="st203" d="M185.76,354.45c0.26-2.89-0.22-5.67-1.12-8.41c2.24-3.94,5.87-4.42,8.35-1.02
				c1.87,2.56,2.36,5.76,1.44,8.51c-0.87,2.59-3.78,0.46-5.73,0.96C187.78,354.73,186.74,354.48,185.76,354.45z"/>
			<path class="st204" d="M194.67,361.27c0.34,3.85-1.13,6.45-4.97,6.62c-2.87,0.12-5.08-1.34-5.06-4.72
				c0.03-4.27,2.71-5.48,6.43-5.8C194.3,357.09,195.18,358.56,194.67,361.27z"/>
			<path class="st127" d="M170.76,340.33c-1.67-1.4-0.76-3.31-1-4.99c0.33,0,0.67-0.01,1-0.01
				C170.76,336.99,170.76,338.66,170.76,340.33z"/>
			<path class="st127" d="M171.76,370.31c-2.09-5.92-0.54-12.05-0.98-18.07c-0.14-1.96-0.02-3.94-0.02-5.92
				c3.08,2.76,2.01,6.44,1.92,9.75C172.54,360.82,172.94,365.62,171.76,370.31z"/>
			<path class="st205" d="M155.77,370.31c-0.02,1.64,2.04,3.62-1.33,4.58c3.44,1.31,3.72-3.06,6.32-2.58
				c-0.02,1.38-0.04,2.76-0.06,4.13c-2.33,0.42-4.65,0.78-6.94-0.19c-0.61-0.01-1.21-0.02-1.82-0.04c-0.39-0.27-0.78-0.54-1.18-0.81
				C151.33,372.63,151.68,369.63,155.77,370.31z"/>
			<path class="st206" d="M136.78,377.3c-0.04,5.37,0.32,10.77-0.95,16.07c0,0.3-0.03,0.6-0.1,0.9c-1.67,0.2-2.77-0.8-2.71-2.2
				c0.19-4.6-1.53-9.17-0.23-13.77l0,0C134.03,377.62,135.33,377.14,136.78,377.3z"/>
			<path class="st162" d="M132.78,378.3c1.28,3.51,0.98,7.16,1,10.79c0.01,1.96-0.37,4.08,1.94,5.18c-0.39,0.69-0.78,1.38-1.17,2.07
				c-0.76-0.24-2.17-0.41-2.2-0.72c-0.51-5.47-0.88-10.95-1.16-16.44C131.19,378.92,132.23,378.6,132.78,378.3z"/>
			<path class="st207" d="M365.68,365.18c-3.3-0.02-6.6-0.05-9.9-0.07c-0.1-0.24-0.2-0.48-0.32-0.71c3.27-0.59,2.28-3.21,2.08-5.04
				c-0.26-2.36-1.2-4.65-1.85-6.97c1.31-0.04,2.62-0.08,3.94-0.12c3.46,3.17,1.85,7.27,2.02,11.04c-0.31,0.09-0.62,0.18-0.94,0.28
				c0.09,0.22,0.14,0.61,0.28,0.64C362.55,364.57,364.34,363.75,365.68,365.18z"/>
			<path class="st208" d="M337.47,361.86c1.52-0.81,2.85-0.7,4.4-0.1C340.36,362.57,339.02,362.44,337.47,361.86z"/>
			<path class="st209" d="M391.52,345.27l-0.39,0c0,0-0.39-0.01-0.39-0.01c0.09-1.54-0.9-3.59,1.85-3.86
				C392.24,342.69,391.88,343.98,391.52,345.27z"/>
			<path class="st160" d="M153.76,376.26c2.31,0.06,4.63,0.12,6.94,0.19c0.1,0.26,0.23,0.5,0.38,0.74c-2.1,0.04-4.2,0.08-6.31,0.12
				C154.44,376.95,154.1,376.6,153.76,376.26z"/>
			<path class="st184" d="M361.65,363.3c-2.24-3.39-0.09-7.59-2.02-11.04c0.06-0.29,0.12-0.58,0.18-0.86
				c0.3-0.02,0.61-0.01,0.91,0.03c4.6,2.33,3.45,6.99,4.08,10.77C365.08,363.91,362.78,363.01,361.65,363.3z"/>
			<g>
				<path d="M218.38,326.86c0.59,1.95,1.76,3.72,3.17,5.18c1.42,1.47,3.07,2.7,4.91,3.59c3.63,1.89,7.76,2.6,11.83,2.84l3.08,0.05
					l3.13-0.02l6.27,0.05c4.17,0.08,8.34-0.09,12.51-0.09c8.32-0.02,16.66-0.28,24.87-1.53c4.09-0.66,8.17-1.54,11.99-3.09
					c1.91-0.77,3.76-1.7,5.41-2.92c1.65-1.21,3.08-2.76,3.98-4.61l0.37,0.17c-0.86,1.95-2.29,3.62-3.95,4.95
					c-1.66,1.33-3.53,2.36-5.46,3.23c-3.88,1.71-8,2.71-12.13,3.5c-8.28,1.5-16.68,2-25.05,2.26c-4.19,0.13-8.37-0.08-12.55-0.06
					l-6.26-0.05c-1.05-0.03-2.08-0.02-3.13-0.06l-3.18-0.19c-4.21-0.43-8.48-1.36-12.21-3.52c-1.88-1.02-3.58-2.38-4.96-4.01
					c-1.38-1.63-2.47-3.51-2.96-5.6L218.38,326.86z"/>
			</g>
		</g>
		<path class="st11" d="M296.72,366.37"/>
	</g>
	<g id="Layer_12">
		<g>
			<g>
				<path class="st4" d="M199.2,79.81c1.54-0.42,2.3-0.62,3.85-1.01c1.25-0.31,2.28-0.18,3.08,0.39c0.79,0.57,1.34,1.55,1.66,2.93
					c0.79,3.45,1.19,5.18,1.98,8.64c0.32,1.38,0.27,2.5-0.14,3.35s-1.17,1.41-2.31,1.69c-1.4,0.35-2.1,0.53-3.49,0.92
					C201.97,89.95,201.05,86.57,199.2,79.81z M206.66,93.38c0.38-0.1,0.64-0.3,0.78-0.61c0.14-0.31,0.14-0.76,0-1.34
					c-0.86-3.54-1.29-5.31-2.16-8.85c-0.14-0.58-0.35-0.98-0.64-1.18c-0.28-0.21-0.63-0.26-1.04-0.16
					c-0.51,0.13-0.76,0.19-1.27,0.32c1.25,4.85,1.88,7.27,3.13,12.11C205.95,93.56,206.19,93.5,206.66,93.38z"/>
				<path class="st4" d="M210.25,77.14c2.77-0.58,4.16-0.85,6.95-1.32c0.17,0.99,0.25,1.48,0.42,2.47c-1.74,0.3-2.61,0.46-4.35,0.8
					c0.36,1.82,0.53,2.73,0.89,4.54c1.35-0.26,2.02-0.39,3.37-0.62c0.17,0.99,0.26,1.48,0.43,2.47c-1.33,0.23-1.99,0.36-3.32,0.62
					c0.41,2.11,0.62,3.17,1.03,5.28c1.62-0.32,2.43-0.46,4.05-0.74c0.17,0.99,0.25,1.48,0.42,2.47c-2.53,0.43-3.79,0.67-6.3,1.2
					C212.41,87.43,211.69,84,210.25,77.14z"/>
				<path class="st4" d="M223.43,91.66c-0.69-0.66-1.15-1.69-1.37-3.09c-0.06-0.4-0.09-0.59-0.15-0.99c0.9-0.14,1.36-0.21,2.26-0.34
					c0.07,0.48,0.1,0.71,0.17,1.19c0.16,1.12,0.65,1.63,1.46,1.52c0.4-0.05,0.69-0.23,0.86-0.53s0.22-0.76,0.14-1.37
					c-0.09-0.73-0.32-1.35-0.68-1.87c-0.36-0.52-1-1.11-1.9-1.78c-1.14-0.85-1.98-1.64-2.51-2.38c-0.53-0.74-0.87-1.61-1.03-2.62
					c-0.21-1.37-0.06-2.48,0.48-3.33c0.54-0.85,1.43-1.36,2.68-1.53c1.23-0.16,2.21,0.1,2.93,0.78c0.72,0.68,1.15,1.73,1.31,3.14
					c0.03,0.29,0.05,0.43,0.08,0.72c-0.95,0.11-1.42,0.16-2.37,0.28c-0.05-0.36-0.07-0.54-0.11-0.89c-0.08-0.6-0.24-1.02-0.49-1.26
					c-0.25-0.25-0.58-0.34-1-0.29c-0.85,0.11-1.19,0.73-1.03,1.83c0.09,0.63,0.33,1.19,0.71,1.7c0.38,0.5,1.04,1.09,1.94,1.76
					c1.16,0.86,1.97,1.68,2.44,2.45c0.48,0.77,0.77,1.7,0.9,2.79c0.16,1.43-0.02,2.55-0.53,3.39c-0.51,0.83-1.33,1.32-2.47,1.47
					C225.03,92.58,224.13,92.33,223.43,91.66z"/>
				<path class="st4" d="M230.89,74c1.57-0.15,2.36-0.22,3.93-0.34c1.28-0.1,2.27,0.21,2.95,0.91c0.68,0.7,1.05,1.75,1.13,3.17
					c0.19,3.54,0.29,5.31,0.48,8.85c0.08,1.42-0.16,2.51-0.7,3.27s-1.39,1.19-2.55,1.28c-1.43,0.11-2.14,0.17-3.57,0.31
					C231.89,84.46,231.56,80.97,230.89,74z M235.9,88.64c0.39-0.03,0.68-0.18,0.87-0.46c0.19-0.28,0.27-0.72,0.23-1.32
					c-0.25-3.64-0.37-5.45-0.62-9.09c-0.04-0.6-0.18-1.02-0.42-1.28c-0.24-0.25-0.57-0.36-0.99-0.33c-0.52,0.04-0.78,0.06-1.29,0.1
					c0.41,4.99,0.62,7.48,1.03,12.47C235.18,88.69,235.42,88.68,235.9,88.64z"/>
				<path class="st4" d="M242.16,73.25c2.82-0.1,4.23-0.13,7.04-0.12c0,1,0,1.5,0,2.5c-1.76,0-2.64,0.01-4.4,0.05
					c0.04,1.85,0.06,2.78,0.1,4.63c1.36-0.03,2.05-0.04,3.41-0.04c0,1,0,1.5,0.01,2.5c-1.35,0-2.02,0.01-3.36,0.04
					c0.05,2.15,0.07,3.23,0.12,5.38c1.64-0.04,2.46-0.04,4.11-0.04c0,1,0,1.5,0,2.5c-2.56,0-3.83,0.02-6.39,0.11
					C242.54,83.76,242.41,80.26,242.16,73.25z"/>
				<path class="st4" d="M261.29,77.7c-1.05-0.07-1.58-0.1-2.64-0.16c0.04-0.78,0.06-1.17,0.1-1.95c0.73,0.04,1.31,0.01,1.76-0.1
					c0.45-0.11,0.82-0.3,1.1-0.59c0.29-0.29,0.55-0.72,0.79-1.29c0.69,0.05,1.04,0.08,1.73,0.13c-0.57,6.98-0.85,10.48-1.42,17.46
					c-0.93-0.08-1.4-0.11-2.34-0.17C260.75,85.71,260.93,83.04,261.29,77.7z"/>
				<path class="st4" d="M268.01,90.83c-0.51-0.82-0.7-1.94-0.55-3.35c0.01-0.13,0.02-0.19,0.03-0.32c0.91,0.1,1.36,0.15,2.26,0.26
					c-0.02,0.2-0.04,0.3-0.06,0.5c-0.14,1.14,0.2,1.76,1.02,1.87c0.44,0.06,0.79-0.06,1.05-0.34c0.26-0.29,0.44-0.82,0.55-1.62
					c0.18-1.33,0.27-1.99,0.45-3.32c-0.02,0-0.03,0-0.04-0.01c-0.56,0.95-1.36,1.36-2.4,1.23c-0.88-0.11-1.5-0.52-1.89-1.25
					c-0.38-0.73-0.51-1.74-0.37-3.04c0.13-1.24,0.2-1.87,0.33-3.11c0.15-1.39,0.59-2.44,1.34-3.13c0.75-0.69,1.77-0.96,3.03-0.8
					c1.26,0.16,2.18,0.68,2.73,1.53c0.56,0.85,0.72,1.98,0.52,3.36c-0.53,3.58-0.8,5.38-1.33,8.96c-0.45,3-1.85,4.32-4.22,4.02
					C269.33,92.13,268.52,91.65,268.01,90.83z M273.12,81.81c0.17-1.23,0.25-1.85,0.41-3.08c0.15-1.12-0.21-1.75-1.09-1.86
					s-1.38,0.4-1.52,1.53c-0.15,1.23-0.22,1.85-0.37,3.08c-0.14,1.14,0.22,1.76,1.06,1.87C272.46,83.47,272.96,82.95,273.12,81.81z"
					/>
				<path class="st4" d="M278.21,92.27c-0.48-0.86-0.6-1.98-0.37-3.36c0.6-3.57,0.9-5.36,1.5-8.94c0.5-2.99,2.06-4.29,4.66-3.8
					c1.24,0.23,2.11,0.8,2.6,1.67c0.49,0.88,0.58,2.01,0.29,3.4c-0.03,0.13-0.04,0.19-0.07,0.32c-0.94-0.2-1.41-0.29-2.35-0.48
					c0.04-0.2,0.06-0.29,0.1-0.49c0.22-1.13-0.1-1.78-0.97-1.95c-0.47-0.09-0.85,0-1.14,0.27c-0.29,0.27-0.5,0.8-0.64,1.59
					c-0.24,1.32-0.36,1.98-0.6,3.3c0.02,0,0.03,0,0.04,0.01c0.61-0.92,1.45-1.29,2.51-1.08c0.9,0.17,1.51,0.65,1.83,1.41
					c0.32,0.76,0.34,1.78,0.07,3.06c-0.26,1.22-0.39,1.84-0.65,3.06c-0.29,1.37-0.82,2.37-1.58,3c-0.76,0.63-1.7,0.83-2.83,0.62
					C279.48,93.66,278.68,93.13,278.21,92.27z M282.62,89.98c0.24-1.22,0.36-1.83,0.6-3.04c0.22-1.13-0.09-1.78-0.93-1.94
					c-0.84-0.16-1.36,0.33-1.57,1.47c-0.22,1.22-0.33,1.83-0.55,3.05c-0.2,1.12,0.1,1.75,0.91,1.9
					C281.89,91.57,282.4,91.09,282.62,89.98z"/>
				<path class="st4" d="M288.15,94.29c-0.43-0.89-0.49-2.01-0.18-3.38c0.82-3.59,1.23-5.39,2.06-8.98
					c0.31-1.37,0.88-2.35,1.71-2.94c0.83-0.59,1.88-0.74,3.12-0.43c1.24,0.31,2.09,0.93,2.55,1.85c0.45,0.92,0.49,2.05,0.12,3.4
					c-0.97,3.55-1.46,5.33-2.43,8.88c-0.37,1.35-0.96,2.31-1.75,2.9c-0.8,0.58-1.75,0.73-2.87,0.44
					C289.35,95.76,288.58,95.18,288.15,94.29z M292.72,92.25c0.96-3.7,1.44-5.55,2.4-9.26c0.29-1.11,0-1.78-0.86-2
					s-1.43,0.24-1.7,1.36c-0.9,3.72-1.36,5.57-2.26,9.29c-0.27,1.12-0.01,1.77,0.79,1.98S292.43,93.36,292.72,92.25z"/>
			</g>
		</g>
	</g>
</g>
</svg>
