<?xml version="1.0" standalone="no"?>
<!DOCTYPE svg PUBLIC "-//W3C//DTD SVG 20010904//EN"
 "http://www.w3.org/TR/2001/REC-SVG-20010904/DTD/svg10.dtd">
<svg version="1.0" xmlns="http://www.w3.org/2000/svg"
 width="700.000000pt" height="700.000000pt" viewBox="0 0 700.000000 700.000000"
 preserveAspectRatio="xMidYMid meet">
<metadata>
Created by potrace 1.11, written by Peter Selinger 2001-2013
</metadata>
<g transform="translate(0.000000,700.000000) scale(0.100000,-0.100000)"
fill="#000000" stroke="none">
<path d="M3388 6655 c-1 -1 -30 -6 -63 -9 -201 -20 -462 -93 -743 -208 -335
-137 -794 -408 -1119 -659 -182 -142 -436 -369 -411 -369 13 0 125 40 428 153
259 96 302 112 590 217 124 45 232 84 240 87 8 3 20 7 25 9 6 1 84 28 175 60
136 47 356 114 420 129 8 1 35 8 60 15 25 7 53 14 63 16 10 2 26 6 35 8 70 22
276 49 392 51 137 2 340 -23 458 -58 26 -8 49 -15 52 -15 33 -3 310 -83 460
-133 137 -45 503 -175 535 -189 30 -14 743 -276 867 -319 59 -21 105 -34 102
-29 -3 4 -39 40 -81 80 -360 346 -893 698 -1398 923 -181 80 -518 190 -650
210 -11 2 -42 7 -70 11 -27 4 -59 9 -70 11 -29 5 -293 12 -297 8z"/>
<path d="M3358 5566 c-1 -2 -39 -6 -83 -10 -44 -4 -89 -9 -100 -11 -11 -3 -37
-7 -59 -10 -424 -59 -897 -277 -1246 -573 -62 -53 -241 -230 -287 -285 -331
-391 -531 -850 -598 -1372 -12 -94 -16 -166 -15 -305 1 -183 7 -274 27 -390 3
-19 7 -42 8 -50 4 -31 28 -138 47 -210 93 -353 253 -669 483 -955 331 -412
785 -712 1293 -856 247 -69 435 -94 712 -94 193 1 291 9 439 35 410 74 766
228 1096 476 106 79 136 105 235 199 287 273 520 640 649 1022 30 89 67 224
77 278 3 17 9 49 14 72 5 22 13 65 16 95 3 29 8 55 9 58 6 10 19 236 18 325 0
540 -150 1019 -461 1475 -35 52 -69 100 -76 105 -6 6 -27 30 -46 55 -144 188
-411 418 -655 565 -224 135 -545 263 -770 306 -129 24 -158 29 -280 45 -44 6
-441 14 -447 10z m352 -1010 c128 -15 296 -58 396 -102 146 -64 214 -101 308
-168 311 -222 529 -543 618 -911 140 -583 -74 -1210 -545 -1588 -112 -90 -163
-122 -292 -186 -215 -107 -420 -155 -660 -155 -110 0 -228 9 -256 18 -7 3 -27
7 -44 9 -96 14 -256 70 -389 138 -510 259 -844 804 -848 1384 -1 95 7 212 17
265 3 14 8 39 10 55 66 377 323 768 650 987 137 92 350 191 458 212 12 3 56
12 97 20 144 31 329 39 480 22z"/>
<path d="M3353 3873 c-339 -58 -625 -335 -689 -668 -2 -11 -6 -31 -9 -45 -11
-51 -6 -227 9 -296 59 -282 253 -514 523 -623 113 -46 168 -56 318 -56 127 0
149 3 235 30 52 16 97 33 98 37 2 4 11 8 20 8 10 0 28 9 42 20 14 11 29 20 33
20 18 0 103 66 167 129 397 389 312 1058 -169 1341 -171 100 -378 137 -578
103z"/>
</g>
</svg>
